<svg width="11" height="10" viewBox="0 0 11 10" fill="none" xmlns="http://www.w3.org/2000/svg">
<g clip-path="url(#clip0_2_149)">
<path d="M1.65318 7.79959C1.31902 7.79959 0.992571 7.71432 0.696711 7.54818C0.544487 7.4698 0.485528 7.27366 0.576467 7.12612C0.878613 6.6433 0.98772 6.05312 0.849381 5.49808C0.705993 4.92267 0.498523 4.43806 0.500008 3.82891C0.505156 1.6918 2.28395 -0.0407306 4.41888 0.000728902C6.48096 0.0422626 8.18041 1.77569 8.18043 3.83832C8.18046 6.53214 5.3573 8.42344 2.86496 7.38319C2.52142 7.65284 2.08963 7.79959 1.65318 7.79959ZM1.24714 7.14188C1.71664 7.2877 2.24467 7.17121 2.60672 6.8212C2.69592 6.73494 2.82936 6.71323 2.94129 6.76677C5.07508 7.78697 7.58638 6.18789 7.58636 3.83832C7.58636 2.08504 6.16006 0.629948 4.40693 0.594651C2.60023 0.558761 1.09841 2.022 1.09405 3.83035C1.09264 4.40892 1.31838 4.87131 1.44174 5.4194C1.57172 5.99698 1.50325 6.60776 1.24714 7.14188Z" fill="white"/>
<path d="M9.34648 10C8.91006 10 8.47824 9.85324 8.13475 9.58364C6.80929 10.1368 5.23264 9.8849 4.14586 8.94635C4.0217 8.83913 4.00799 8.65158 4.11519 8.5274C4.22242 8.40327 4.40996 8.38951 4.53412 8.49676C5.49801 9.32917 6.90963 9.51642 8.05839 8.96722C8.1703 8.91366 8.30371 8.93539 8.39297 9.02165C8.75499 9.37164 9.28305 9.4882 9.75254 9.34231C9.45042 8.71215 9.40856 7.99021 9.64269 7.32186C9.6448 7.31585 9.6471 7.30993 9.64957 7.30404C9.82056 6.90095 9.90672 6.47255 9.90566 6.03078C9.90377 5.25188 9.64467 4.53138 9.15632 3.94711C9.05112 3.82122 9.06788 3.63392 9.19374 3.52873C9.31958 3.42351 9.50693 3.44029 9.61212 3.56615C10.1823 4.24834 10.4975 5.1231 10.4997 6.02934C10.501 6.54841 10.4002 7.05216 10.2004 7.52681C9.99043 8.13454 10.087 8.78524 10.4232 9.32649C10.5142 9.47407 10.4552 9.67022 10.3029 9.74866C10.0071 9.91472 9.68059 9.99999 9.34648 10Z" fill="white"/>
<path d="M4.34011 4.32291C4.59967 4.32291 4.8101 4.1126 4.8101 3.85317C4.8101 3.59373 4.59967 3.38342 4.34011 3.38342C4.08054 3.38342 3.87012 3.59373 3.87012 3.85317C3.87012 4.1126 4.08054 4.32291 4.34011 4.32291Z" fill="white"/>
<path d="M2.60866 4.32291C2.86823 4.32291 3.07865 4.1126 3.07865 3.85317C3.07865 3.59373 2.86823 3.38342 2.60866 3.38342C2.34909 3.38342 2.13867 3.59373 2.13867 3.85317C2.13867 4.1126 2.34909 4.32291 2.60866 4.32291Z" fill="white"/>
<path d="M6.07155 4.32291C6.33112 4.32291 6.54154 4.1126 6.54154 3.85317C6.54154 3.59373 6.33112 3.38342 6.07155 3.38342C5.81198 3.38342 5.60156 3.59373 5.60156 3.85317C5.60156 4.1126 5.81198 4.32291 6.07155 4.32291Z" fill="white"/>
</g>
<defs>
<clipPath id="clip0_2_149">
<rect width="10" height="10" fill="white" transform="translate(0.5)"/>
</clipPath>
</defs>
</svg>
