<svg width="11" height="10" viewBox="0 0 11 10" fill="none" xmlns="http://www.w3.org/2000/svg">
<path d="M7.64844 7.73438C7.54063 7.73438 7.45312 7.82188 7.45312 7.92969C7.45312 8.0375 7.54063 8.125 7.64844 8.125C7.75625 8.125 7.84375 8.0375 7.84375 7.92969C7.84375 7.82188 7.75625 7.73438 7.64844 7.73438Z" fill="white"/>
<path d="M8.12934 7.10279L7.20102 6.79342L6.86775 6.12688C7.16799 5.82129 7.37645 5.41695 7.44674 4.99521L7.4883 4.74609H7.84375C8.16684 4.74609 8.42969 4.48324 8.42969 4.16016V2.92969C8.42969 1.31426 7.11543 0 5.5 0C3.88043 0 2.57031 1.31049 2.57031 2.92969V4.16016C2.57031 4.41477 2.73361 4.63187 2.96094 4.7125V4.94141C2.96094 5.26449 3.22379 5.52734 3.54688 5.52734H3.7184C3.80307 5.71127 3.91266 5.88162 4.04602 6.03465C4.07367 6.06645 4.10252 6.09727 4.13207 6.12725L3.79898 6.79342L2.87064 7.10281C1.79125 7.46273 1.00781 8.59904 1.00781 9.80469C1.00781 9.91256 1.09525 10 1.20312 10H9.79688C9.90473 10 9.99219 9.91256 9.99219 9.80469C9.99219 8.59904 9.20877 7.46273 8.12934 7.10279ZM8.03906 4.16016C8.03906 4.26785 7.95145 4.35547 7.84375 4.35547H7.54566C7.59531 3.9709 7.6284 3.56166 7.6417 3.15859C7.64209 3.14723 7.6424 3.13617 7.64275 3.125H8.03906V4.16016ZM3.15625 4.35547C3.04855 4.35547 2.96094 4.26785 2.96094 4.16016V3.125H3.35738C3.35803 3.14537 3.35871 3.16584 3.35947 3.18645C3.35949 3.18715 3.35953 3.18783 3.35955 3.18854C3.35955 3.18859 3.35955 3.18865 3.35955 3.18871C3.37322 3.58074 3.40588 3.97936 3.45439 4.35545H3.15625V4.35547ZM3.54688 5.13672C3.43918 5.13672 3.35156 5.0491 3.35156 4.94141V4.74609H3.51168L3.55324 4.99529C3.56117 5.04266 3.57092 5.08984 3.58219 5.13672H3.54688ZM3.35189 2.73438H2.96836C3.06729 1.42537 4.15971 0.390625 5.5 0.390625C6.83434 0.390625 7.93156 1.42523 8.03162 2.73438H7.64813C7.63406 1.65572 6.75568 0.78125 5.67482 0.78125H5.32521C4.24437 0.78125 3.36594 1.65572 3.35189 2.73438ZM5.3252 1.17188H5.6748C6.54998 1.17188 7.25832 1.88771 7.25781 2.76191C7.25781 2.82338 7.25732 2.87689 7.25629 2.92559C7.25629 2.92621 7.25627 2.92686 7.25627 2.9275L7.01197 2.8926C6.3483 2.79783 5.72166 2.48451 5.24748 2.01033C5.21084 1.97371 5.16117 1.95312 5.10938 1.95312C4.58484 1.95312 4.08273 2.19211 3.75082 2.59586C3.83262 1.80057 4.50494 1.17188 5.3252 1.17188ZM3.98711 5.13672C3.88934 4.81146 3.77746 3.85443 3.75273 3.24115L4.01561 2.89064C4.25703 2.56885 4.63264 2.36891 5.03219 2.34596C5.55791 2.84627 6.23803 3.17666 6.95674 3.27928L7.24428 3.32037C7.22506 3.72828 7.18578 4.13762 7.12951 4.51408C7.12949 4.5142 7.12947 4.51434 7.12945 4.51447C7.11156 4.63551 7.09746 4.7134 7.06145 4.93096C6.95801 5.55137 6.49508 6.1124 5.88396 6.2652C5.63246 6.32799 5.3675 6.32797 5.11613 6.2652C4.73455 6.1698 4.38467 5.90578 4.15887 5.52734H4.55703C4.63766 5.75467 4.85475 5.91797 5.10938 5.91797H5.5C5.82373 5.91797 6.08594 5.65578 6.08594 5.33203C6.08594 5.00895 5.82309 4.74609 5.5 4.74609H5.10938C4.84908 4.74609 4.6352 4.91422 4.5567 5.13672H3.98711ZM5.09295 6.66047C5.22691 6.68869 5.3635 6.70313 5.5 6.70313C5.60686 6.70313 5.71373 6.69418 5.81939 6.67684L5.47428 7.04182L5.09295 6.66047ZM5.20576 7.32576L4.58627 7.98088C4.41572 7.65443 4.26918 7.31469 4.14898 6.96688L4.38162 6.5016L5.20576 7.32576ZM6.58527 6.43543L6.85098 6.96686C6.73059 7.31525 6.584 7.65512 6.41363 7.98117L5.75059 7.31812L6.58527 6.43543ZM4.91406 5.33203C4.91406 5.2242 5.00152 5.13672 5.10938 5.13672H5.5C5.6077 5.13672 5.69531 5.22434 5.69531 5.33203C5.69531 5.43988 5.60783 5.52734 5.5 5.52734H5.10938C5.00168 5.52734 4.91406 5.43973 4.91406 5.33203ZM1.40625 9.60938C1.48365 8.64182 2.12758 7.76236 2.99418 7.47338L3.81633 7.19939C3.96695 7.6159 4.15355 8.02072 4.37225 8.40525C4.37262 8.40592 4.37297 8.40658 4.37334 8.40723L4.37336 8.40727C4.53314 8.6883 4.71299 8.96293 4.90797 9.22365L5.14824 9.60938H1.40625ZM5.5 9.43527L5.23512 9.01002C5.23215 9.00525 5.22898 9.00062 5.22562 8.99613C5.06746 8.78516 4.91992 8.56451 4.78555 8.33867L5.48209 7.60207L6.21604 8.33602C6.08076 8.5635 5.93271 8.78506 5.77441 8.99609C5.76484 9.00885 5.77842 8.98875 5.5 9.43527ZM5.85176 9.60938L6.09201 9.22367C6.28785 8.96195 6.46898 8.68512 6.63037 8.40078C6.63135 8.39906 6.63227 8.3973 6.63324 8.39559C6.63336 8.39537 6.63348 8.39518 6.63359 8.39496C6.84951 8.0141 7.03416 7.61279 7.18367 7.19939L8.0058 7.47338C8.87242 7.76236 9.51635 8.64182 9.59375 9.60938H5.85176Z" fill="white"/>
<path d="M9.00697 8.81895C8.87644 8.55768 8.68525 8.32557 8.45406 8.14772C8.36855 8.08191 8.24593 8.09791 8.18017 8.18342C8.11439 8.26893 8.13039 8.39154 8.21588 8.45732C8.40052 8.59938 8.55322 8.78479 8.6575 8.99352C8.7058 9.09018 8.82318 9.12908 8.91951 9.08096C9.01599 9.03275 9.05515 8.91545 9.00697 8.81895Z" fill="white"/>
</svg>
