<svg id="Capa_1" enable-background="new 0 0 512 512" height="512" viewBox="0 0 512 512" width="512" xmlns="http://www.w3.org/2000/svg"><g><path d="m7.5 402.389c0 55.839 111.257 101.106 248.5 101.106s248.5-45.267 248.5-101.106v-107c0 55.839-111.257 101.106-248.5 101.106s-248.5-45.266-248.5-101.106z" fill="#665e66"/><path d="m386.798 178.446c-3.395-6.136-11.143-8.272-17.191-4.78l-31.252 18.043c-.328.189-.731.189-1.059 0l-30.237-17.457c-.328-.189-.529-.539-.529-.917v-28.263c0-.378.202-.728.529-.917l30.237-17.457c.328-.189.731-.189 1.059 0l31.252 18.043c5.955 3.438 13.55 1.417 17.023-4.486 3.516-5.976 1.151-13.889-4.854-17.356l-17.362-10.024c-.706-.408-.706-1.426 0-1.834l17.142-9.897c5.961-3.441 8.38-11.057 5.048-17.079-3.395-6.136-11.142-8.271-17.19-4.778l-17.501 10.104c-.706.408-1.588-.102-1.588-.917v-20.013c0-6.882-5.384-12.786-12.265-12.913-7.011-.129-12.735 5.516-12.735 12.498v36.086c0 .378-.202.728-.529.917l-30.2 17.436c-.328.189-.731.189-1.059 0l-24.509-14.15c-.328-.189-.529-.539-.529-.917v-34.915c0-.378.202-.728.529-.917l31.252-18.042c5.979-3.451 8.027-11.096 4.575-17.075-3.452-5.978-11.096-8.029-17.075-4.575l-17.693 10.215c-.706.407-1.588-.102-1.588-.917v-19.794c0-6.882-5.384-12.786-12.265-12.913-7.011-.129-12.735 5.516-12.735 12.498v20.208c0 .815-.882 1.324-1.588.917l-17.693-10.215c-5.979-3.452-13.625-1.403-17.075 4.575-3.452 5.979-1.403 13.624 4.575 17.075l31.252 18.042c.328.189.529.539.529.917v34.915c0 .378-.202.728-.529.917l-24.509 14.15c-.328.189-.731.189-1.059 0l-30.2-17.436c-.328-.189-.529-.539-.529-.917v-35.67c0-6.882-5.384-12.786-12.265-12.913-7.011-.129-12.735 5.516-12.735 12.498v20.43c0 .815-.882 1.324-1.588.917l-17.501-10.104c-6.047-3.492-13.795-1.358-17.19 4.778-3.332 6.022-.912 13.638 5.048 17.08l17.142 9.897c.706.408.706 1.426 0 1.834l-17.359 10.022c-6.007 3.468-8.371 11.383-4.853 17.36 3.474 5.902 11.069 7.919 17.021 4.482l31.252-18.043c.328-.189.731-.189 1.059 0l30.237 17.457c.328.189.529.539.529.917v28.263c0 .378-.202.728-.529.917l-30.237 17.457c-.328.189-.731.189-1.059 0l-30.892-17.835c-5.961-3.441-13.766-1.73-17.316 4.166-3.617 6.007-1.59 13.787 4.456 17.277l17.693 10.215c.706.408.706 1.426 0 1.834l-17.168 9.912c-6.007 3.468-8.371 11.383-4.853 17.36 3.474 5.902 11.069 7.919 17.021 4.482l17.501-10.104c.706-.408 1.588.102 1.588.917v20.016c0 6.882 5.384 12.786 12.265 12.913 7.011.129 12.735-5.516 12.735-12.498v-36.086c0-.378.202-.728.529-.917l30.277-17.48c.328-.189.731-.189 1.059 0l24.432 14.106c.328.189.529.539.529.917v34.914c0 .378-.202.728-.529.917l-31.252 18.043c-5.979 3.451-8.027 11.097-4.575 17.075 3.451 5.979 11.095 8.027 17.075 4.575l17.693-10.215c.706-.408 1.588.102 1.588.917v19.793c0 6.882 5.384 12.786 12.265 12.913 7.011.129 12.735-5.516 12.735-12.498v-20.207c0-.815.882-1.324 1.588-.917l17.693 10.215c1.969 1.137 4.117 1.677 6.238 1.677 4.32 0 8.521-2.242 10.837-6.252 3.452-5.979 1.403-13.624-4.575-17.075l-31.252-18.043c-.328-.189-.529-.539-.529-.917v-34.914c0-.378.202-.728.529-.917l24.432-14.106c.328-.189.731-.189 1.059 0l30.277 17.48c.328.189.529.539.529.917v35.672c0 6.882 5.384 12.786 12.265 12.913 7.011.129 12.735-5.516 12.735-12.498v-20.43c0-.815.882-1.324 1.588-.917l17.501 10.104c5.955 3.438 13.55 1.417 17.023-4.486 3.516-5.976 1.151-13.889-4.854-17.356l-17.17-9.913c-.706-.408-.706-1.426 0-1.834l17.335-10.008c5.96-3.444 8.38-11.059 5.048-17.081zm-131.327 9.889-24.473-14.129c-.328-.189-.529-.539-.529-.917v-28.258c0-.378.202-.728.529-.917l24.473-14.129c.328-.189.731-.189 1.059 0l24.473 14.129c.328.189.529.539.529.917v28.258c0 .378-.202.728-.529.917l-24.473 14.129c-.328.189-.732.189-1.059 0z" fill="#ecf4ff"/><path d="m365.888 204.681-1.473.851c-.706.408-.706 1.426 0 1.834l17.17 9.913c6.005 3.467 8.37 11.38 4.854 17.356-3.473 5.903-11.068 7.924-17.023 4.486l-17.501-10.104c-.706-.407-1.588.102-1.588.917v20.43c0 6.981-5.724 12.626-12.735 12.498-6.881-.126-12.265-6.03-12.265-12.913v-35.672c0-.378-.202-.728-.529-.917l-30.277-17.48c-.328-.189-.731-.189-1.059 0l-24.432 14.105c-.328.189-.529.539-.529.917v34.914c0 .378.202.728.529.917l31.252 18.043c5.979 3.451 8.027 11.097 4.575 17.075-2.315 4.01-6.517 6.252-10.837 6.252-2.121 0-4.27-.54-6.238-1.677l-17.693-10.215c-.706-.408-1.588.102-1.588.917v20.207c0 6.981-5.724 12.626-12.735 12.498-6.881-.126-12.265-6.03-12.265-12.913v-19.792c0-.815-.882-1.324-1.588-.917l-17.693 10.215c-5.98 3.452-13.624 1.403-17.075-4.575-3.452-5.979-1.403-13.624 4.575-17.075l31.252-18.043c.328-.189.529-.539.529-.917v-34.914c0-.378-.202-.728-.529-.917l-24.432-14.105c-.328-.189-.731-.189-1.059 0l-30.277 17.48c-.328.189-.529.539-.529.917v36.086c0 6.981-5.724 12.626-12.735 12.498-6.881-.126-12.265-6.03-12.265-12.913v-20.016c0-.815-.882-1.324-1.588-.917l-17.501 10.104c-5.952 3.437-13.547 1.42-17.021-4.482-3.518-5.977-1.153-13.892 4.853-17.36l17.168-9.912c.706-.407.706-1.426 0-1.834l-1.473-.851c-82.126 16.502-138.613 50.922-138.613 90.709 0 55.839 111.257 101.106 248.5 101.106s248.5-45.267 248.5-101.106c0-39.787-56.487-74.207-138.612-90.708z" fill="#756e78"/><path d="m7.5 364.568c4.143 0 7.5-3.357 7.5-7.5v-24.213c12.963 15.461 34.092 29.432 62.458 40.973 106.411 43.295 284.37 40.109 379.444-10.384 3.658-1.943 5.049-6.483 3.106-10.142-1.943-3.658-6.484-5.05-10.142-3.106-89.108 47.324-262.132 52.306-366.757 9.737-43.284-17.609-68.109-41.135-68.109-64.543 0-19.782 17.646-39.72 49.688-56.141 3.686-1.89 5.143-6.409 3.254-10.096-1.89-3.686-6.41-5.141-10.096-3.254-37.843 19.395-57.846 43.424-57.846 69.491v61.679c0 4.142 3.357 7.499 7.5 7.499z"/><path d="m284.752 137.619-24.464-14.124c-2.646-1.531-5.93-1.532-8.567-.005l-24.481 14.134c-2.634 1.525-4.271 4.364-4.271 7.407v28.258c0 3.043 1.637 5.882 4.279 7.412l24.464 14.124c2.652 1.535 5.937 1.528 8.567.005l24.481-14.134c2.634-1.525 4.271-4.364 4.271-7.407v-28.258c0-3.043-1.636-5.882-4.279-7.412zm-25.547 44.212c.008.005.017.009.024.014 0 0 .003.001-.024-.014zm14.826-12.261-18.031 10.41-18.031-10.41v-20.82l18.031-10.41 18.031 10.41z"/><path d="m386.277 201.546c8.985-5.726 12.18-17.519 7.083-26.731-5.424-9.803-17.799-13.245-27.503-7.644l-28.031 16.184-23.795-13.738v-20.825l23.795-13.738 28.031 16.184c9.47 5.468 21.69 2.251 27.238-7.178 5.669-9.637 1.973-22.145-7.569-27.654l-7.699-4.445 7.479-4.318c9.575-5.528 13.103-17.732 7.861-27.206-5.433-9.816-17.816-13.237-27.503-7.642l-7.839 4.525v-8.858c0-11.057-8.806-20.214-19.629-20.412-11.43-.128-20.371 8.953-20.371 19.997v32.367l-23.759 13.718-18.066-10.433v-27.477l28.031-16.183c4.626-2.671 7.936-6.983 9.318-12.144 2.861-10.675-3.463-21.633-14.141-24.495-5.161-1.386-10.552-.674-15.178 1.998l-8.03 4.637v-8.637c0-11.057-8.806-20.214-19.629-20.412-11.271-.179-20.371 8.843-20.371 19.997v9.052l-8.031-4.637c-9.572-5.528-21.795-2.253-27.32 7.32-5.526 9.574-2.254 21.792 7.32 27.32l28.031 16.184v27.478l-18.067 10.432-23.759-13.718v-31.953c0-11.057-8.806-20.214-19.629-20.412-11.43-.128-20.371 8.953-20.371 19.997v9.273l-7.838-4.525c-9.703-5.602-22.077-2.163-27.503 7.641-5.242 9.474-1.716 21.679 7.86 27.207l7.48 4.318-7.699 4.445c-9.548 5.513-13.238 18.026-7.566 27.658 5.545 9.424 17.76 12.643 27.234 7.174l28.031-16.184 23.795 13.738v20.825l-23.795 13.738-27.672-15.976c-9.574-5.528-21.907-2.481-27.49 6.792-5.731 9.515-2.595 21.709 6.693 27.38-11.956 2.945-23.33 6.297-33.981 10.018-3.91 1.366-5.973 5.644-4.606 9.554 1.365 3.907 5.642 5.974 9.554 4.606 7.079-2.473 14.501-4.778 22.22-6.903-3.219 5.963-3.455 13.389.209 19.614 5.545 9.424 17.76 12.643 27.234 7.174l7.839-4.525v8.858c0 11.057 8.806 20.214 19.629 20.412 11.267.191 20.371-8.847 20.371-19.997v-32.367l23.836-13.762 17.991 10.389v27.477l-28.031 16.184c-9.573 5.527-12.847 17.748-7.32 27.32 5.513 9.549 17.766 12.835 27.32 7.32l8.031-4.637v8.636c0 11.057 8.806 20.214 19.629 20.412 11.415.177 20.371-8.985 20.371-19.997v-9.051l8.031 4.637c9.563 5.521 21.807 2.227 27.32-7.32 5.527-9.574 2.253-21.793-7.32-27.32l-28.031-16.184v-27.477l17.99-10.387 23.836 13.762v31.952c0 11.057 8.806 20.214 19.629 20.412 11.142.19 20.371-8.734 20.371-19.997v-9.273l7.839 4.525c9.471 5.469 21.69 2.251 27.238-7.178 3.606-6.13 3.48-13.557.199-19.624 63.997 17.572 103.898 46.409 103.898 76.577 0 12.297-6.562 24.431-19.502 36.064-3.081 2.769-3.333 7.511-.563 10.591 2.759 3.072 7.501 3.341 10.591.563 3.539-3.182 6.698-6.425 9.475-9.724v69.505c0 23.408-24.825 46.935-68.11 64.545-95.309 38.779-250.467 38.78-345.779 0-43.287-17.61-68.112-41.136-68.112-64.544v-10.321c0-4.143-3.357-7.5-7.5-7.5s-7.5 3.357-7.5 7.5v10.321c0 30.26 27.508 58.117 77.457 78.439 98.913 40.244 258.145 40.256 357.086 0 49.949-20.322 77.457-48.18 77.457-78.439v-107c0-51.739-75.475-81.473-125.723-93.844zm-6.302 29.286c-1.387 2.356-4.44 3.158-6.81 1.793l-17.497-10.102c-2.641-1.525-5.92-1.527-8.561-.004s-4.281 4.364-4.281 7.413v20.431c0 2.888-2.435 5.102-5.097 4.999-2.658-.049-4.903-2.528-4.903-5.414v-35.671c0-3.052-1.642-5.893-4.279-7.412l-30.276-17.48c-2.641-1.523-5.921-1.524-8.56 0l-24.44 14.11c-2.634 1.525-4.271 4.364-4.271 7.407v34.914c0 3.043 1.637 5.882 4.279 7.412l31.252 18.043c2.392 1.381 3.213 4.435 1.83 6.829-1.355 2.346-4.397 3.237-6.83 1.831l-17.696-10.217c-2.641-1.522-5.919-1.521-8.558.003s-4.277 4.365-4.277 7.412v20.207c0 2.843-2.362 5.076-5.097 4.999-2.658-.049-4.903-2.528-4.903-5.414v-19.792c0-3.047-1.639-5.887-4.277-7.411-2.639-1.525-5.918-1.524-8.561-.001l-17.692 10.215c-2.388 1.377-5.453.558-6.831-1.83-1.381-2.393-.565-5.448 1.83-6.83l31.261-18.048c2.634-1.525 4.271-4.364 4.271-7.407v-34.914c0-3.043-1.637-5.882-4.279-7.412l-24.432-14.105c-2.641-1.523-5.921-1.524-8.56 0l-30.271 17.477c-2.644 1.523-4.285 4.364-4.285 7.416v36.086c0 2.92-2.467 5.102-5.097 4.999-2.658-.049-4.903-2.528-4.903-5.414v-20.016c0-3.049-1.641-5.89-4.281-7.413-2.639-1.523-5.92-1.523-8.557.002l-17.501 10.104c-2.368 1.367-5.421.563-6.808-1.792-1.393-2.367-.267-5.67 2.14-7.06l17.177-9.917c2.637-1.526 4.273-4.367 4.271-7.414s-1.644-5.885-4.279-7.405c-1.129-.652-14.398-8.313-17.692-10.215-2.41-1.392-3.238-4.494-1.78-6.913 1.372-2.277 4.643-2.981 7.14-1.539l30.898 17.839c2.632 1.517 5.903 1.517 8.553-.004l30.245-17.462c2.634-1.525 4.271-4.364 4.271-7.407v-28.263c0-3.043-1.637-5.882-4.279-7.412l-30.251-17.466c-2.631-1.511-5.903-1.511-8.544.009l-31.252 18.043c-2.365 1.367-5.42.563-6.808-1.792-1.393-2.367-.267-5.67 2.14-7.06l17.357-10.021c5.695-3.286 5.705-11.525.004-14.826l-17.143-9.896c-2.499-1.443-3.523-4.627-2.235-6.954 1.361-2.458 4.45-3.312 6.877-1.913l17.497 10.102c5.691 3.291 12.842-.827 12.842-7.409v-20.434c0-2.793 2.29-5.061 5.097-4.999 2.658.049 4.903 2.528 4.903 5.414v35.671c0 3.052 1.642 5.893 4.279 7.412l30.206 17.44c2.632 1.516 5.903 1.518 8.553-.004l24.518-14.155c2.634-1.525 4.271-4.364 4.271-7.407v-34.915c0-3.043-1.637-5.882-4.279-7.412l-31.252-18.042c-1.157-.668-1.984-1.746-2.33-3.035-.713-2.662.861-5.408 3.535-6.125 1.292-.346 2.638-.167 3.795.5l17.696 10.217c2.641 1.522 5.919 1.521 8.558-.003s4.274-4.365 4.274-7.412v-20.208c0-2.886 2.428-5.103 5.097-4.999 2.658.049 4.903 2.528 4.903 5.414v19.793c0 3.047 1.639 5.887 4.277 7.411 2.64 1.524 5.919 1.524 8.561.001l17.695-10.216c2.391-1.382 5.446-.562 6.828 1.831 1.382 2.394.565 5.448-1.83 6.83l-31.261 18.047c-2.633 1.526-4.27 4.365-4.27 7.408v34.915c0 3.043 1.637 5.882 4.279 7.412l24.523 14.159c2.635 1.512 5.905 1.51 8.544-.009l30.194-17.433c2.644-1.523 4.285-4.364 4.285-7.416v-36.085c0-2.771 2.271-5.061 5.097-4.999 2.658.049 4.903 2.528 4.903 5.414v20.016c0 3.049 1.641 5.89 4.281 7.413s5.92 1.523 8.557-.002l17.502-10.104c2.41-1.391 5.509-.557 6.877 1.915 1.287 2.326.263 5.51-2.236 6.953l-17.15 9.901c-2.637 1.526-4.273 4.367-4.271 7.414s1.644 5.885 4.279 7.405l17.361 10.023c2.412 1.394 3.527 4.699 2.141 7.059-1.387 2.355-4.441 3.162-6.81 1.793l-31.256-18.047c-2.632-1.517-5.903-1.517-8.553.004l-30.245 17.462c-2.634 1.525-4.271 4.364-4.271 7.407v28.263c0 3.043 1.637 5.882 4.279 7.412l30.251 17.466c2.635 1.512 5.905 1.51 8.544-.009l31.252-18.043c2.405-1.389 5.507-.562 6.878 1.915 1.287 2.325.264 5.509-2.235 6.951l-17.332 10.007c-2.639 1.522-4.28 4.36-4.282 7.407-.003 3.047 1.634 5.888 4.278 7.419l17.17 9.912c2.412 1.394 3.527 4.7 2.141 7.059z"/></g></svg>