<svg width="94" height="17" viewBox="0 0 94 17" fill="none" xmlns="http://www.w3.org/2000/svg">
<path d="M37.2285 5.60207L37.7872 3.04558H28.2215L27.6628 5.60207H31.1844L29.1866 15.0492H31.8616L33.8763 5.60207H37.2285Z" fill="black"/>
<path d="M36.9508 6.63483L35.9011 11.5785C35.8333 11.8832 35.7995 12.188 35.7995 12.4758C35.7995 14.0334 36.7645 15.2693 38.5761 15.2693C39.3549 15.2693 40.2183 14.8969 40.6077 14.2366C40.5908 14.4059 40.5739 14.5921 40.5739 14.7614C40.5739 14.8122 40.5739 14.9477 40.5908 15.0492H43.0796C43.0796 14.372 43.1642 13.881 43.2319 13.5763L44.6879 6.63483H42.1145L41.0648 11.5108C40.8786 12.3573 40.4046 12.9837 39.6088 12.9837C38.847 12.9837 38.4576 12.5435 38.4576 11.8663C38.4576 11.7139 38.4745 11.5616 38.5083 11.3923L39.5242 6.63483H36.9508Z" fill="black"/>
<path d="M51.2421 9.22518L53.2216 6.7872C53.0692 6.71948 51.2929 6.5671 50.9035 6.5671C50.1078 6.5671 49.3459 6.80413 48.8041 7.54907C48.8719 7.1766 48.8719 6.66869 48.8719 6.63483H46.3662C46.3662 6.90571 46.3492 7.36283 46.2138 8.04005L44.7239 15.0492H47.2973L48.1269 11.206C48.4825 9.56378 49.3628 9.0728 50.2263 9.0728C50.6834 9.0728 50.9035 9.12359 51.2421 9.22518Z" fill="black"/>
<path d="M56.8282 15.0492H59.6895L57.3531 10.2749L61.5518 6.63483H58.0472L55.1013 9.27597L56.4896 2.79163H53.8993L51.3089 15.0492H53.8823L54.3395 12.8991L55.4399 11.934L56.8282 15.0492Z" fill="black"/>
<path d="M60.17 12.5097V12.6113C60.17 13.407 60.6948 15.3032 63.5053 15.3032C65.6724 15.3032 66.8406 13.8641 66.8406 12.4927C66.8406 11.46 66.3496 10.5457 64.9274 9.97011L63.8778 9.54685C63.6069 9.44527 63.4206 9.22518 63.4206 8.93736C63.4206 8.5141 63.7931 8.20935 64.2841 8.20935C65.1645 8.20935 65.2999 8.83578 65.2999 9.27597L67.5009 9.02201C67.4839 8.05698 66.9422 6.38087 64.301 6.38087C62.354 6.38087 61.0165 7.68451 61.0165 9.20825C61.0165 10.2071 61.5075 11.0706 62.9296 11.6632L63.7423 12.0018C64.2333 12.2049 64.3179 12.4758 64.3179 12.7298C64.3179 13.1022 64.0301 13.4239 63.4206 13.4239C62.7603 13.4239 62.3202 13.0176 62.3202 12.3065C62.3202 12.2896 62.3202 12.2388 62.3371 12.1541L60.17 12.5097Z" fill="black"/>
<path d="M70.9575 2.82178L68.418 14.8254H73.4294C75.9012 14.8254 77.645 13.3017 77.645 11.1007C77.645 9.83096 76.7647 8.98444 76.0705 8.74742C77.3572 8.39188 78.3392 7.07131 78.3392 5.69994C78.3392 4.04077 77.2895 2.82178 75.1055 2.82178H70.9575ZM72.549 7.63001L73.0908 5.03966H74.2759C75.224 5.03966 75.6472 5.44599 75.6472 6.12321C75.6472 7.05438 74.9362 7.63001 73.9034 7.63001H72.549ZM71.4824 12.6414L72.0919 9.83096H73.5817C74.5468 9.83096 75.0208 10.305 75.0208 11.0161C75.0208 12.015 74.2082 12.6414 73.0738 12.6414H71.4824Z" fill="#2B9D63"/>
<path d="M80.9678 9.61087C81.2386 8.78128 81.8143 8.20564 82.8301 8.20564C83.9136 8.20564 84.2692 8.95058 84.2692 9.49235V9.61087H80.9678ZM86.4024 11.27C86.5717 10.7621 86.6394 10.1526 86.6394 9.76324C86.6394 7.6808 85.2173 6.15707 82.847 6.15707C80.6122 6.15707 78.3774 8.0702 78.3774 11.1685C78.3774 13.4879 80.1551 15.0794 82.2714 15.0794C84.3369 15.0794 85.522 14.0128 86.0638 12.9123L84.066 12.015C83.7951 12.5568 83.2195 12.9631 82.4915 12.9631C81.3064 12.9631 80.7307 12.1843 80.7307 11.287L86.4024 11.27Z" fill="#2B9D63"/>
<path d="M91.0279 8.66276H92.6362L93.1272 6.41102H91.5019L92.0267 3.95611H89.7242L89.4703 5.03966C89.2671 5.90311 88.8269 6.41102 87.8788 6.41102H87.4725L86.9984 8.66276H88.4544L87.7772 11.9473C87.7264 12.2012 87.6926 12.4382 87.6926 12.6753C87.6926 14.0466 88.6407 14.9439 90.2152 14.9439C90.8755 14.9439 91.2818 14.7577 91.3834 14.7069L91.8236 12.6753C91.6204 12.7261 91.4003 12.7599 91.1972 12.7599C90.6892 12.7599 90.3337 12.5568 90.3337 12.0319C90.3337 11.9473 90.3506 11.8457 90.3676 11.7441L91.0279 8.66276Z" fill="#2B9D63"/>
<path fill-rule="evenodd" clip-rule="evenodd" d="M14.0161 0H7.90234L6.2968 7.35134H12.4106L11.7082 10.5675H17.5868C20.5737 10.5675 23.5117 8.20192 24.1491 5.28377C24.7864 2.36563 22.8817 0 19.8947 0H14.4864H14.0161Z" fill="#2B9D63"/>
<path fill-rule="evenodd" clip-rule="evenodd" d="M13.0814 6.43243H6.49731L4.18935 17H10.7734L10.7734 17H16.6518C19.379 17 22.0615 14.84 22.6434 12.1756C23.2253 9.51124 21.4862 7.35132 18.759 7.35132H12.8807L13.0814 6.43243Z" fill="#1D6B44"/>
<path d="M11.0435 5.05408H14.8058L12.1968 17H8.43446L11.0435 5.05408Z" fill="white"/>
<path d="M18.8566 3.67566C19.8956 3.67566 20.5581 4.49849 20.3364 5.51349V5.51349C20.1147 6.5285 19.0928 7.35133 18.0539 7.35133L6.29665 7.35133L7.09942 3.67566L18.8566 3.67566Z" fill="white"/>
<path d="M3.98858 7.35138C2.94965 7.35138 2.28713 6.52855 2.50881 5.51355V5.51355C2.73049 4.49854 3.75241 3.67571 4.79135 3.67571L7.24581 3.67571L6.44304 7.35138L3.98858 7.35138Z" fill="#2B9D63"/>
</svg>
