<?xml version="1.0"?>
<svg xmlns="http://www.w3.org/2000/svg" xmlns:xlink="http://www.w3.org/1999/xlink" xmlns:svgjs="http://svgjs.com/svgjs" version="1.1" width="512" height="512" x="0" y="0" viewBox="0 0 512 512" style="enable-background:new 0 0 512 512" xml:space="preserve" class=""><g><g xmlns="http://www.w3.org/2000/svg"><path d="m196 205.208c19.799 0 37.5 14.399 45 21.299v-213.869c-15.04 4.695-27.339 15.535-35.713 25.065-35.458 40.309-55.4 111.725-53.974 186.015 8.103-6.452 25.541-18.51 44.687-18.51z" fill="#ffffff" data-original="#000000" style="" class=""/><path d="m76 205.208c19.827 0 37.615 12.684 45.375 19.005-1.395-81.548 21.313-160.765 61.382-206.314 6.226-7.081 12.853-12.853 19.657-17.899-125.5 21.921-202.414 118.489-202.414 209.108v29.099l23.699-16.8c.301 0 24.702-16.199 52.301-16.199z" fill="#ffffff" data-original="#000000" style="" class=""/><path d="m390.597 224.269c7.784-6.293 25.728-19.061 45.403-19.061 27.599 0 52.301 16.199 52.301 16.199l23.699 16.5v-28.799c0-108.737-96.435-186.953-200.623-207.971 6.189 4.774 12.195 10.289 17.895 16.761 40.052 45.57 62.737 124.807 61.325 206.371z" fill="#ffffff" data-original="#000000" style="" class=""/><path d="m360.661 223.661c1.419-74.262-18.497-145.649-53.919-185.958-8.395-9.531-20.7-20.372-35.742-25.065v213.869c7.5-6.899 25.201-21.299 45-21.299 19.314 0 36.601 11.988 44.661 18.453z" fill="#ffffff" data-original="#000000" style="" class=""/><path d="m120 317v-15h-90v15c0 24.814 20.186 45 45 45s45-20.186 45-45z" fill="#ffffff" data-original="#000000" style="" class=""/><path d="m211 302v15c0 24.814 20.186 45 45 45s45-20.186 45-45v-15h-30v-75.493c-2.401 2.1-3.9 3.6-3.9 3.6l-11.1 12.601-11.1-12.601s-1.5-1.5-3.9-3.6v75.493z" fill="#ffffff" data-original="#000000" style="" class=""/><path d="m482 317v-15h-90v15c0 24.814 20.186 45 45 45s45-20.186 45-45z" fill="#ffffff" data-original="#000000" style="" class=""/><path d="m512 437c0-41.353-33.633-75-75-75s-75 33.647-75 75v30c0 24.814 20.186 45 45 45h60c24.814 0 45-20.186 45-45z" fill="#ffffff" data-original="#000000" style="" class=""/><path d="m181 437v30c0 24.814 20.186 45 45 45h60c24.814 0 45-20.186 45-45v-30c0-41.353-33.633-75-75-75s-75 33.647-75 75z" fill="#ffffff" data-original="#000000" style="" class=""/><path d="m45 512h60c24.814 0 45-20.186 45-45v-30c0-41.353-33.633-75-75-75s-75 33.647-75 75v30c0 24.814 20.186 45 45 45z" fill="#ffffff" data-original="#000000" style="" class=""/></g></g></svg>
