<svg width="512" height="512" viewBox="0 0 512 512" fill="none" xmlns="http://www.w3.org/2000/svg">
<path d="M288 96C269.975 95.983 252.039 98.5092 234.72 103.504C229.189 86.6123 219.421 71.4201 206.348 59.3774C193.275 47.3346 177.334 38.8433 160.046 34.7137C142.759 30.5842 124.701 30.9543 107.597 35.7887C90.4926 40.6231 74.9129 49.7605 62.3447 62.3288C49.7764 74.897 40.639 90.4767 35.8046 107.581C30.9702 124.685 30.6001 142.743 34.7296 160.031C38.8592 177.318 47.3505 193.259 59.3933 206.332C71.436 219.405 86.6282 229.173 103.52 234.704C92.34 273.397 93.6111 314.626 107.153 352.557C120.695 390.488 145.822 423.199 178.979 446.063C212.136 468.927 251.643 480.785 291.911 479.96C332.178 479.134 371.166 465.666 403.358 441.463C435.549 417.259 459.315 383.544 471.29 345.09C483.266 306.636 482.846 265.39 470.09 227.188C457.333 188.986 432.886 155.762 400.208 132.219C367.53 108.676 328.276 96.0053 288 96V96ZM63.9999 136C63.9999 121.76 68.2226 107.839 76.1341 95.9989C84.0456 84.1586 95.2904 74.9302 108.447 69.4807C121.603 64.0312 136.08 62.6053 150.046 65.3835C164.013 68.1616 176.842 75.0189 186.912 85.0883C196.981 95.1577 203.838 107.987 206.616 121.953C209.395 135.92 207.969 150.397 202.519 163.553C197.07 176.709 187.841 187.954 176.001 195.866C164.161 203.777 150.24 208 136 208C116.911 207.979 98.6096 200.386 85.1116 186.888C71.6136 173.39 64.0211 155.089 63.9999 136V136ZM288 448C262.868 448.039 238.082 442.147 215.655 430.805C193.229 419.462 173.795 402.988 158.933 382.721C144.071 362.454 134.201 338.967 130.124 314.168C126.048 289.369 127.88 263.958 135.472 240H136C163.572 239.966 190.005 228.998 209.502 209.502C228.998 190.005 239.966 163.572 240 136V135.472C262.014 128.498 285.277 126.371 308.19 129.239C331.104 132.106 353.125 139.899 372.742 152.083C392.359 164.267 409.105 180.553 421.832 199.822C434.558 219.091 442.963 240.887 446.469 263.711C449.974 286.536 448.497 309.849 442.14 332.049C435.783 354.249 424.695 374.81 409.639 392.319C394.583 409.828 375.915 423.871 354.918 433.483C333.921 443.094 311.092 448.047 288 448Z" fill="white"/>
<path d="M384 272H304V192C304 187.757 302.314 183.687 299.314 180.686C296.313 177.686 292.243 176 288 176C283.757 176 279.687 177.686 276.686 180.686C273.686 183.687 272 187.757 272 192V288C272 292.243 273.686 296.313 276.686 299.314C279.687 302.314 283.757 304 288 304H384C388.243 304 392.313 302.314 395.314 299.314C398.314 296.313 400 292.243 400 288C400 283.757 398.314 279.687 395.314 276.686C392.313 273.686 388.243 272 384 272Z" fill="white"/>
<path d="M136 144C140.243 144 144.313 142.314 147.314 139.314C150.314 136.313 152 132.243 152 128V96C152 91.7565 150.314 87.6869 147.314 84.6863C144.313 81.6857 140.243 80 136 80C131.757 80 127.687 81.6857 124.686 84.6863C121.686 87.6869 120 91.7565 120 96V128C120 132.243 121.686 136.313 124.686 139.314C127.687 142.314 131.757 144 136 144Z" fill="white"/>
<path d="M136 192C144.837 192 152 184.837 152 176C152 167.163 144.837 160 136 160C127.163 160 120 167.163 120 176C120 184.837 127.163 192 136 192Z" fill="white"/>
</svg>
