<svg id="Layer_2" height="512" viewBox="0 0 32 32" width="512" xmlns="http://www.w3.org/2000/svg" data-name="Layer 2"><path d="m18 6a11.976 11.976 0 0 0 -3.33.469 6.5 6.5 0 1 0 -8.2 8.2 12 12 0 1 0 11.53-8.669zm-14 2.5a4.5 4.5 0 1 1 4.5 4.5 4.505 4.505 0 0 1 -4.5-4.5zm14 19.5a9.984 9.984 0 0 1 -9.533-13h.033a6.508 6.508 0 0 0 6.5-6.5v-.033a10 10 0 1 1 3 19.533z"/><path d="m24 17h-5v-5a1 1 0 0 0 -2 0v6a1 1 0 0 0 1 1h6a1 1 0 0 0 0-2z"/><path d="m8.5 9a1 1 0 0 0 1-1v-2a1 1 0 0 0 -2 0v2a1 1 0 0 0 1 1z"/><circle cx="8.5" cy="11" r="1"/></svg>