<svg width="11" height="10" viewBox="0 0 11 10" fill="none" xmlns="http://www.w3.org/2000/svg">
<g clip-path="url(#clip0_2_143)">
<path d="M9.66651 4.52084V3.5C9.66667 3.38724 9.64458 3.27555 9.6015 3.17134C9.55843 3.06713 9.49521 2.97244 9.41547 2.8927C9.33574 2.81297 9.24105 2.74975 9.13684 2.70667C9.03262 2.66359 8.92094 2.6415 8.80817 2.64167H8.24984L3.68734 0.741669C3.60976 0.708902 3.52641 0.691979 3.4422 0.691895C3.35799 0.69181 3.27461 0.708566 3.19696 0.741176C3.11932 0.773786 3.04898 0.821592 2.99009 0.881783C2.93119 0.941975 2.88492 1.01334 2.85401 1.09167L2.23317 2.64167H1.77484C1.66207 2.6415 1.55039 2.66359 1.44617 2.70667C1.34196 2.74975 1.24727 2.81297 1.16754 2.8927C1.0878 2.97244 1.02458 3.06713 0.981506 3.17134C0.938429 3.27555 0.91634 3.38724 0.916505 3.5V8.45C0.91634 8.56277 0.938429 8.67445 0.981506 8.77867C1.02458 8.88288 1.0878 8.97757 1.16754 9.0573C1.24727 9.13704 1.34196 9.20026 1.44617 9.24333C1.55039 9.28641 1.66207 9.3085 1.77484 9.30834H8.80817C8.92094 9.3085 9.03262 9.28641 9.13684 9.24333C9.24105 9.20026 9.33574 9.13704 9.41547 9.0573C9.49521 8.97757 9.55843 8.88288 9.6015 8.77867C9.64458 8.67445 9.66667 8.56277 9.66651 8.45V7.42917C9.77794 7.4253 9.88355 7.37845 9.96122 7.29845C10.0389 7.21845 10.0826 7.1115 10.0832 7V4.95C10.0826 4.8385 10.0389 4.73155 9.96122 4.65155C9.88355 4.57155 9.77794 4.52471 9.66651 4.52084ZM3.2415 1.24584C3.2515 1.2187 3.26704 1.19394 3.28712 1.17314C3.30721 1.15234 3.3314 1.13594 3.35817 1.125C3.41178 1.10421 3.47123 1.10421 3.52484 1.125L7.1665 2.64167H6.15817L3.6915 1.82084C3.64062 1.80312 3.58485 1.80581 3.5359 1.82834C3.48695 1.85087 3.44864 1.89149 3.42901 1.94167L3.15817 2.64167H2.68317L3.2415 1.24584ZM4.8415 2.64167H3.60817L3.74567 2.27917L4.8415 2.64167ZM9.24984 8.45C9.24973 8.56711 9.20316 8.67938 9.12036 8.76219C9.03755 8.84499 8.92528 8.89156 8.80817 8.89167H1.77484C1.65773 8.89156 1.54546 8.84499 1.46265 8.76219C1.37985 8.67938 1.33328 8.56711 1.33317 8.45V3.5C1.33394 3.3831 1.38071 3.2712 1.46338 3.18854C1.54604 3.10588 1.65794 3.0591 1.77484 3.05834H8.80817C8.92507 3.0591 9.03697 3.10588 9.11963 3.18854C9.2023 3.2712 9.24907 3.3831 9.24984 3.5V4.51667H7.37484C6.98806 4.51667 6.61713 4.67031 6.34364 4.9438C6.07015 5.2173 5.9165 5.58823 5.9165 5.975C5.9165 6.36178 6.07015 6.73271 6.34364 7.0062C6.61713 7.27969 6.98806 7.43334 7.37484 7.43334H9.24984V8.45ZM9.66651 7C9.66621 7.00433 9.66436 7.0084 9.6613 7.01146C9.65823 7.01453 9.65416 7.01638 9.64984 7.01667H7.37484C7.09857 7.01667 6.83362 6.90692 6.63827 6.71157C6.44292 6.51622 6.33317 6.25127 6.33317 5.975C6.33317 5.69873 6.44292 5.43378 6.63827 5.23843C6.83362 5.04308 7.09857 4.93334 7.37484 4.93334L9.66651 4.95V7Z" fill="white"/>
<path d="M7.375 5.34998C7.25139 5.34998 7.13055 5.38663 7.02777 5.45531C6.92499 5.52398 6.84488 5.62159 6.79758 5.7358C6.75027 5.85 6.73789 5.97567 6.76201 6.09691C6.78613 6.21814 6.84565 6.32951 6.93306 6.41692C7.02047 6.50433 7.13183 6.56385 7.25307 6.58797C7.37431 6.61208 7.49997 6.59971 7.61418 6.5524C7.72838 6.5051 7.82599 6.42499 7.89467 6.32221C7.96334 6.21943 8 6.09859 8 5.97498C8 5.80922 7.93415 5.65024 7.81694 5.53303C7.69973 5.41582 7.54076 5.34998 7.375 5.34998ZM7.375 6.18331C7.3338 6.18331 7.29352 6.17109 7.25926 6.1482C7.225 6.12531 7.19829 6.09277 7.18253 6.0547C7.16676 6.01663 7.16263 5.97474 7.17067 5.93433C7.17871 5.89392 7.19855 5.8568 7.22769 5.82766C7.25682 5.79853 7.29394 5.77868 7.33436 5.77065C7.37477 5.76261 7.41666 5.76673 7.45473 5.7825C7.49279 5.79827 7.52533 5.82497 7.54822 5.85923C7.57112 5.89349 7.58333 5.93377 7.58333 5.97498C7.58333 6.03023 7.56138 6.08322 7.52231 6.12229C7.48324 6.16136 7.43025 6.18331 7.375 6.18331Z" fill="white"/>
<path d="M3.4165 4.10006C3.4165 4.15531 3.39455 4.2083 3.35548 4.24737C3.31641 4.28644 3.26342 4.30839 3.20817 4.30839H2.37484C2.31958 4.30839 2.26659 4.28644 2.22752 4.24737C2.18845 4.2083 2.1665 4.15531 2.1665 4.10006C2.1665 4.0448 2.18845 3.99181 2.22752 3.95274C2.26659 3.91367 2.31958 3.89172 2.37484 3.89172H3.20817C3.26342 3.89172 3.31641 3.91367 3.35548 3.95274C3.39455 3.99181 3.4165 4.0448 3.4165 4.10006Z" fill="white"/>
<path d="M4.24984 4.93331C4.24984 4.98856 4.22789 5.04155 4.18882 5.08062C4.14975 5.11969 4.09676 5.14164 4.0415 5.14164H2.37484C2.31958 5.14164 2.26659 5.11969 2.22752 5.08062C2.18845 5.04155 2.1665 4.98856 2.1665 4.93331C2.1665 4.87806 2.18845 4.82506 2.22752 4.78599C2.26659 4.74692 2.31958 4.72498 2.37484 4.72498H4.0415C4.09676 4.72498 4.14975 4.74692 4.18882 4.78599C4.22789 4.82506 4.24984 4.87806 4.24984 4.93331Z" fill="white"/>
</g>
<defs>
<clipPath id="clip0_2_143">
<rect width="10" height="10" fill="white" transform="translate(0.5)"/>
</clipPath>
</defs>
</svg>
