<?xml version="1.0"?>
<svg xmlns="http://www.w3.org/2000/svg" xmlns:xlink="http://www.w3.org/1999/xlink" xmlns:svgjs="http://svgjs.com/svgjs" version="1.1" width="512" height="512" x="0" y="0" viewBox="0 0 512 512" style="enable-background:new 0 0 512 512" xml:space="preserve" class=""><g><path xmlns="http://www.w3.org/2000/svg" d="m321.768 158.381a35.767 35.767 0 0 0 -10.544-25.456l-115.281-115.28a36.04 36.04 0 0 0 -50.912 0l-115.281 115.28a36 36 0 0 0 0 50.912l115.281 115.281a36.039 36.039 0 0 0 50.912 0l115.281-115.281a35.766 35.766 0 0 0 10.544-25.456zm-19.029 16.971-115.281 115.281a24.027 24.027 0 0 1 -33.941 0l-115.281-115.281a24 24 0 0 1 0-33.941l115.281-115.281a24.025 24.025 0 0 1 33.941 0l115.281 115.281a24 24 0 0 1 0 33.941z" fill="#ffffff" data-original="#000000" style=""/><path xmlns="http://www.w3.org/2000/svg" d="m152.727 140.621a25.117 25.117 0 1 0 35.521 0 25.146 25.146 0 0 0 -35.521 0zm27.036 27.035a13.11 13.11 0 1 1 0-18.55 13.031 13.031 0 0 1 0 18.55z" fill="#ffffff" data-original="#000000" style=""/><path xmlns="http://www.w3.org/2000/svg" d="m72.385 140.621a25.117 25.117 0 1 0 35.521 0 25.148 25.148 0 0 0 -35.521 0zm27.036 27.035a13.11 13.11 0 1 1 0-18.55 13.031 13.031 0 0 1 0 18.55z" fill="#ffffff" data-original="#000000" style=""/><path xmlns="http://www.w3.org/2000/svg" d="m233.068 140.621a25.117 25.117 0 1 0 35.521 0 25.146 25.146 0 0 0 -35.521 0zm27.032 27.035a13.11 13.11 0 1 1 0-18.55 13.131 13.131 0 0 1 0 18.55z" fill="#ffffff" data-original="#000000" style=""/><path xmlns="http://www.w3.org/2000/svg" d="m162.03 54.945a5.982 5.982 0 0 0 4.242-1.757l1.458-1.458a6 6 0 1 0 -8.485-8.485l-1.458 1.455a6 6 0 0 0 4.243 10.242z" fill="#ffffff" data-original="#000000" style=""/><path xmlns="http://www.w3.org/2000/svg" d="m94.522 122.453a5.984 5.984 0 0 0 4.243-1.757l54.571-54.572a6 6 0 0 0 -8.485-8.485l-54.572 54.571a6 6 0 0 0 4.243 10.243z" fill="#ffffff" data-original="#000000" style=""/><path xmlns="http://www.w3.org/2000/svg" d="m457 270h-163a36 36 0 0 0 -36 36v163a36 36 0 0 0 36 36h163a36 36 0 0 0 36-36v-163a36 36 0 0 0 -36-36zm24 199a24 24 0 0 1 -24 24h-163a24 24 0 0 1 -24-24v-163a24 24 0 0 1 24-24h163a24 24 0 0 1 24 24z" fill="#ffffff" data-original="#000000" style=""/><path xmlns="http://www.w3.org/2000/svg" d="m326.433 311.235a27.3 27.3 0 1 0 27.3 27.3 27.336 27.336 0 0 0 -27.3-27.3zm0 42.608a15.3 15.3 0 1 1 15.3-15.3 15.322 15.322 0 0 1 -15.3 15.3z" fill="#ffffff" data-original="#000000" style=""/><path xmlns="http://www.w3.org/2000/svg" d="m326.433 408.414a27.3 27.3 0 1 0 27.3 27.3 27.335 27.335 0 0 0 -27.3-27.3zm0 42.607a15.3 15.3 0 1 1 15.3-15.3 15.322 15.322 0 0 1 -15.3 15.3z" fill="#ffffff" data-original="#000000" style=""/><path xmlns="http://www.w3.org/2000/svg" d="m423.611 311.235a27.3 27.3 0 1 0 27.3 27.3 27.335 27.335 0 0 0 -27.3-27.3zm0 42.608a15.3 15.3 0 1 1 15.3-15.3 15.321 15.321 0 0 1 -15.3 15.3z" fill="#ffffff" data-original="#000000" style=""/><path xmlns="http://www.w3.org/2000/svg" d="m423.611 408.414a27.3 27.3 0 1 0 27.3 27.3 27.334 27.334 0 0 0 -27.3-27.3zm0 42.607a15.3 15.3 0 1 1 15.3-15.3 15.321 15.321 0 0 1 -15.3 15.3z" fill="#ffffff" data-original="#000000" style=""/></g></svg>
