<?xml version="1.0" encoding="utf-8"?>
<!-- Generator: Adobe Illustrator 16.0.2, SVG Export Plug-In . SVG Version: 6.00 Build 0)  -->
<!DOCTYPE svg PUBLIC "-//W3C//DTD SVG 1.1//EN" "http://www.w3.org/Graphics/SVG/1.1/DTD/svg11.dtd">
<svg version="1.1" id="Layer_1" xmlns="http://www.w3.org/2000/svg" xmlns:xlink="http://www.w3.org/1999/xlink" x="0px" y="0px"
	 width="512.102px" height="512.036px" viewBox="0 0 512.102 512.036" enable-background="new 0 0 512.102 512.036"
	 xml:space="preserve">
<path fill="#FFFFFF" d="M64.464,190.695c9.497,0.107,18.997,0.095,28.495-0.026c2.505-0.032,3.603,0.542,3.422,3.283
	c-0.23,3.484-0.055,6.995-0.055,10.495c0,85.32-0.006,170.64,0.01,255.959c0.002,8.541,0.826,16.979,4.82,24.724
	c8.982,17.418,23.491,26.642,42.932,26.705c74.652,0.245,149.31,0.294,223.963,0c28.206-0.111,47.535-21.182,47.546-50.635
	c0.033-88.152,0.063-176.306-0.117-264.458c-0.011-5.072,1.231-6.188,6.202-6.177c13.627,0.033,27.352,1.376,40.861-1.543
	c27.779-6.003,48.646-30.703,49.234-59.086c0.467-22.487,0.368-44.993,0.091-67.485c-0.387-31.451-22.73-56.68-53.98-61.538
	c-0.354-0.056-0.632-0.598-0.945-0.912c-134.65,0-269.3,0-403.949,0c-2.033,1.882-4.786,1.649-7.192,2.426
	C22.941,9.817,8.146,24.9,1.843,48.209C1.407,49.818,1.803,51.87,0,52.993c0,27.664,0,55.326,0,82.99
	c1.77,2.875,1.664,6.271,2.598,9.386C10.764,172.619,34.865,190.36,64.464,190.695z M385.607,289.229
	c0,57.479,0.008,114.958-0.007,172.437c-0.003,11.018-4.741,17.908-13.697,19.845c-1.927,0.416-3.97,0.412-5.958,0.412
	c-73.307,0.02-146.613,0.022-219.92,0.011c-12.938-0.003-19.679-6.696-19.682-19.732c-0.027-115.791,0.004-231.582-0.102-347.373
	c-0.004-3.809,1.061-4.667,4.754-4.662c83.303,0.107,166.605,0.121,249.908-0.027c4.297-0.008,4.774,1.537,4.769,5.153
	C385.58,173.271,385.607,231.25,385.607,289.229z M30.32,60.864c0.521-16.73,13.871-29.321,30.58-30.708
	c2.152-0.18,4.327-0.154,6.491-0.154c125.781-0.007,251.563-0.007,377.344-0.005c23.728,0,37.198,13.415,37.203,37.045
	c0.004,19.326,0.03,38.651-0.007,57.977c-0.042,21.4-13.777,35.379-35.113,35.676c-8.994,0.126-17.993-0.09-26.986,0.083
	c-3.1,0.06-4.366-0.547-4.313-4.065c0.217-14.157,0.22-28.322-0.001-42.479c-0.056-3.548,1.262-4.162,4.334-4.042
	c4.654,0.182,9.338,0.185,13.985-0.11c7.624-0.485,13.266-6.324,13.813-13.915c0.525-7.292-4.705-14.037-12.152-15.394
	c-2.436-0.443-4.967-0.502-7.452-0.503c-57.477-0.026-114.952-0.021-172.429-0.021c-57.809,0-115.619-0.008-173.428,0.008
	c-9.563,0.003-15.311,3.766-17.305,11.179c-2.428,9.021,3.598,17.891,12.906,18.61c4.805,0.372,9.668,0.393,14.48,0.123
	c3.429-0.191,4.158,1.062,4.123,4.254c-0.158,14.16-0.077,28.321-0.06,42.481c0.003,2.065,0.252,3.962-2.923,3.857
	c-11.146-0.372-22.329,0.643-33.449-0.545c-16.541-1.764-29.137-13.956-29.641-30.4C29.619,106.85,29.605,83.83,30.32,60.864z"/>
<path fill="#FFFFFF" d="M255.827,144.687c-52.667,0.183-95.208,42.852-95.071,95.36c0.139,52.636,42.803,95.165,95.352,95.048
	c52.627-0.118,95.229-42.835,95.071-95.328C351.021,187.124,308.28,144.505,255.827,144.687z M255.414,305.096
	c-36.008-0.312-64.9-29.576-64.661-65.492c0.239-36.074,29.292-64.97,65.269-64.92c36.201,0.05,65.383,29.396,65.16,65.529
	C320.959,276.454,291.61,305.408,255.414,305.096z"/>
<path fill="#FFFFFF" d="M334.698,401.713c-26.154-0.067-52.308-0.022-78.461-0.025c-25.487-0.002-50.974-0.003-76.461,0.002
	c-1.665,0.001-3.335-0.019-4.993,0.099c-8.488,0.599-14.367,7.22-13.97,15.681c0.414,8.815,7.052,14.204,17.674,14.208
	c51.64,0.02,103.281,0.015,154.921-0.013c1.986-0.001,4.01-0.123,5.951-0.515c6.929-1.401,11.628-7.122,11.787-14.14
	C351.352,407.893,344.866,401.738,334.698,401.713z"/>
</svg>
