<svg id="Capa_1" enable-background="new 0 0 448.941 448.941" height="512" viewBox="0 0 448.941 448.941" width="512" xmlns="http://www.w3.org/2000/svg"><path d="m448.941 140.294v-56.118c0-15.497-12.562-28.059-28.059-28.059h-392.823c-15.497.001-28.059 12.562-28.059 28.059v56.118c46.49 0 84.176 37.687 84.176 84.176s-37.686 84.177-84.176 84.177v56.118c0 15.495 12.562 28.059 28.059 28.059h392.824c15.497 0 28.059-12.563 28.059-28.059v-56.118c-46.49 0-84.176-37.687-84.176-84.176s37.686-84.177 84.175-84.177zm-280.588 224.471h-28.059v-56.118h28.059zm0-112.236h-28.059v-56.118h28.059zm0-112.235h-28.059v-56.118h28.059z"/></svg>