<?xml version="1.0" standalone="no"?>
<!DOCTYPE svg PUBLIC "-//W3C//DTD SVG 1.1//EN" "http://www.w3.org/Graphics/SVG/1.1/DTD/svg11.dtd">
<svg xmlns="http://www.w3.org/2000/svg">
<metadata>Copyright (C) 2020 by original authors @ fontello.com</metadata>
<defs>
<font id="cashpro" horiz-adv-x="1000" >
<font-face font-family="cashpro" font-weight="400" font-stretch="normal" units-per-em="1000" ascent="850" descent="-150" />
<missing-glyph horiz-adv-x="1000" />
<glyph glyph-name="manager" unicode="&#xe800;" d="M288 546c7-85 41-48 48-86 11-62 66-106 100-122 20-9 41-13 63-14v0c0 0 0 0 0 0s0 0 0 0v0c22 1 42 5 62 14 34 16 89 60 101 122 7 38 41 1 47 86 0 34-18 43-18 43s9 50 13 88c4 49-28 173-203 173 0 0-1 0-2 0 0 0 0 0 0 0v0c0 0 0 0 0 0s0 0 0 0v0c0 0 0 0-1 0 0 0-1 0-2 0-174 0-207-124-202-173 4-38 13-88 13-88s-19-9-19-43z m606-418c-88 45-215 101-221 103 0 0 0 0 0 0-4 1-8 2-12 2-15 0-28-10-32-23 0 0 0 0 0 0-23-55-65-152-91-199l-6 132c0 0 39 82 43 90 10 17 1 32-17 32-10 0-33 0-56 0 0 0 0 0 0 0-1 0-1 0-1 0 0 0 0 0 0 0 0 0-1 0-1 0s-1 0-1 0c0 0 0 0 0 0 0 0 0 0 0 0 0 0 0 0-1 0-23 0-46 0-55 0-19 0-28-15-18-32 4-8 43-90 43-90l-6-132c-26 47-68 144-91 199 0 0 0 0 0 0-4 13-17 23-32 23-4 0-8-1-11-2 0 0-1 0-1 0-6-2-133-58-221-103-40-20-63-45-63-71 0-87 0-207 0-207h455 1 0 0 0 0 1 1 0 0 0 1 0 455c0 0 0 120 0 207 0 26-23 51-63 71z" horiz-adv-x="1000" />

<glyph glyph-name="limit" unicode="&#xe801;" d="M1179-150q-62 36-124 71a42 42 0 0 1-4 2c-7 3-8 7-4 13 10 19 20 39 30 58 2 4 5 5 10 2 18-10 36-20 55-30a617 617 0 0 1 52 197h-71v85c3 0 5 0 7 0 17 1 34 0 51 1 10 0 13 3 12 13-3 22-7 44-12 66-7 32-17 65-30 95-8 19-10 20-28 10-12-6-24-12-35-19-5-3-9-3-12 3-12 21-25 42-39 64 9 4 17 9 25 14 10 6 20 12 31 19 4 2 5 5 2 9-4 6-8 12-12 17-37 44-76 84-122 117l-6 4-35-60c-4 2-6 2-7 3-20 11-40 23-59 33-5 3-6 6-3 10 8 15 16 29 24 44 2 4 4 8 6 13-63 28-127 48-197 51v-71h-82v71c-69-3-134-23-197-51 4-8 7-16 11-23 7-12 13-23 20-35 1-2 3-5-1-7-22-13-44-25-67-38l-37 61c-17-13-33-26-49-40a564 564 0 0 1-88-96c-6-8-6-9 3-14 14-9 29-18 44-27 2-1 5-2 8-4-14-23-27-44-41-66-2-4-4-4-7-2-12 7-24 14-37 20-21 10-20 10-29-10-18-43-29-88-38-133a291 291 0 0 1-4-29c0-9 2-12 11-12 17-1 34 0 51-1 1 0 2 0 4 0v-85h-67a618 618 0 0 1 53-198c14 9 28 17 42 25 22 12 17 13 29-8 9-15 16-31 24-47 3-5 2-8-3-11q-64-36-128-73a19 19 0 0 1-1-1h-2c-4 6-8 12-12 18a599 599 0 0 0-60 127c-14 44-27 89-30 136-2 14-3 29-4 43v67c0 3 1 5 1 8 3 24 4 48 9 72 20 111 66 211 140 298 116 136 264 213 443 229 9 0 18 1 28 2h40a69 69 0 0 1 8-1 626 626 0 0 0 156-26q171-52 293-183 148-162 166-381c0-9 1-19 2-28v-65c0-2-1-5-1-7-4-29-6-59-12-87-11-59-33-114-60-167-10-19-22-37-33-55z m-173 261c-20 2-41 3-61 5-43 3-86 7-129 11-35 3-71 6-106 8-13 2-27 0-40-5a77 77 0 0 0-102 46c-15 43 9 90 53 100 32 7 60-1 81-28 7-9 17-14 27-18 42-19 85-37 128-55q70-29 139-58c4-1 7-3 11-4 0-1-1-2-1-2z" horiz-adv-x="1286" />

<glyph glyph-name="coupons" unicode="&#xe802;" d="M884 710v-860h-98c-1 1-2 2-4 3q-36 26-72 52l-28 21-58-76h-85a33 33 0 0 1-3 3c-30 24-60 48-90 73-4 2-6 3-9 0-32-24-65-48-97-73a37 37 0 0 1-3-3h-77l-58 76c-11-8-21-16-32-23q-36-27-72-53h-98v858c1 5 1 9 2 14q16 93 106 122c10 3 20 4 30 6h608a33 33 0 0 1 4-1c63-6 116-53 130-115 1-8 2-16 4-24z m-65-795v780c0 2 0 4 0 6-1 48-38 85-86 85q-291 0-582 0a89 89 0 0 1-17-2c-41-8-69-42-69-85q0-390 0-779c0-2 0-4 0-5 8-2 13 0 19 4 33 25 67 49 100 73 10 8 20 15 30 22 2-1 3-3 4-4 21-28 43-56 65-84 6-9 13-13 24-12 5 1 9 1 13 4q46 35 92 69 15 12 30 24c2-1 3-2 4-3 36-29 73-58 109-88 5-4 10-7 17-6 5 1 10 0 16 0a10 10 0 0 1 6 4q33 41 65 83c3 4 7 9 10 13 44-32 88-63 131-95 6-4 11-6 19-4z m-377 373q108 0 217 0c16 0 29-10 32-24 5-18-7-36-25-39a57 57 0 0 0-8 0q-216 0-432 0c-17 0-29 8-33 22-6 20 8 39 29 41 2 0 4 0 6 0z m0 375q109 0 217 0c15 0 28-8 32-22 6-20-8-40-29-41-1 0-3 0-4 0h-432c-17 0-29 9-33 22-6 21 9 41 30 41 16 0 32 0 47 0z m0-187q108 0 216 0c10 0 19-2 25-10 9-9 12-21 7-33s-15-18-28-20c-1 0-2 0-4 0h-433c-16 0-29 9-32 24a31 31 0 0 0 28 39c2 0 4 0 7 0z" horiz-adv-x="884" />

<glyph glyph-name="dealer" unicode="&#xe803;" d="M490 850c34-34 43-78 54-121 7-25 17-36 43-42a342 342 0 0 0 92-36c36-21 36-51 0-75-46-31-99-41-153-48-121-16-242-15-361 17a313 313 0 0 0-58 22c-20 10-41 21-41 46s20 38 40 47c27 12 56 20 84 30a174 174 0 0 0 22 5c17 53 33 104 48 155h230z m-185-1000c-38 7-76 12-115 20a313 313 0 0 0-56 19c-77 32-121 88-128 172-2 18-2 37-5 55-6 38 9 63 39 86 76 56 160 87 255 97-6-24-10-46-17-67-7-18-2-28 15-35a350 350 0 0 0 32-19c-47-97-16-198-17-296 0-11 1-21 2-32z m20 0c14 117 27 235 40 352a75 75 0 0 1-2 29c-12 40-12 40 23 69 33-24 32-28 23-67-5-25-1-52 1-78 11-102 24-203 35-305z m120 326a39 39 0 0 0 5 5c15 11 38 20 44 35s-7 36-12 55c-2 8-4 17-8 33 46-12 88-20 129-33a373 373 0 0 0 148-88 59 59 0 0 0 17-39 968 968 0 0 0-8-107c-6-52-34-91-75-121-50-38-159-67-225-60 3 70 6 141 8 211 1 19 2 38-2 57s-14 35-21 52z m-88 319h59c11-36 23-42 69-36 22 2 29 13 30 44l79 13c-6-9-8-16-12-18-24-7-26-29-34-48-18-45-46-83-88-108-57-33-124-29-173 19-27 26-46 60-65 93-10 16-11 36-32 43-5 2-7 9-14 19l83-13c0-21 1-41 28-44 46-5 57 0 70 36z" horiz-adv-x="768" />

<glyph glyph-name="language" unicode="&#xe804;" d="M853 703c-92 93-215 145-346 147-2 0-5 0-7 0s-4 0-7 0c-131-2-254-54-346-147-95-94-147-219-147-353s52-259 147-353c92-93 215-145 346-147 3 0 5 0 7 0 2 0 5 0 7 0 131 2 254 54 346 147 95 94 147 220 147 353 0 134-52 259-147 353z m-664-42c53 53 117 91 187 112-16-18-31-39-45-63-19-29-34-61-48-95h-135c13 16 26 32 41 46z m-79-106h153c-15-55-25-115-27-175h-175c4 62 21 121 49 175z m0-410c-28 54-45 113-49 175h175c2-60 12-120 27-175h-153z m79-106c-15 14-28 30-41 46h135c14-34 29-66 48-95 14-24 29-45 45-63-70 21-134 59-187 112z m281-117c-24 16-58 48-89 99-12 20-23 42-33 64h122v-163z m0 223h-145c-17 55-27 114-30 175h175v-175z m0 235h-175c3 61 13 120 30 175h145v-175z m0 235h-122c10 23 21 44 33 64 31 51 65 83 89 99v-163z m420-60c28-54 45-113 49-175h-175c-2 60-11 120-27 175h153z m-79 106c15-14 29-30 41-46h-135c-14 34-29 66-48 95-14 24-29 45-45 63 70-21 134-59 187-112z m-281 117c25-16 58-48 89-99 12-20 24-41 33-64h-122v163z m0-223h145c17-55 27-114 30-175h-175v175z m175-235c-3-61-13-120-30-175h-145v175h175z m-175-398v163h122c-9-22-21-44-33-64-31-51-64-83-89-99z m281 117c-53-53-117-91-187-112 16 18 31 39 45 63 19 29 34 61 48 95h135c-12-16-26-32-41-46z m79 106h-153c16 55 25 115 27 175h175c-4-62-21-121-49-175z" horiz-adv-x="1000" />

<glyph glyph-name="log" unicode="&#xe805;" d="M56 350q0-186 0-373c0-38 21-64 55-70a100 100 0 0 1 18-1q200 0 401 0c18 0 30-11 30-27a27 27 0 0 0-24-29 75 75 0 0 0-9 0q-201 0-401 0c-61 0-109 37-123 94a127 127 0 0 0-3 29q0 376 0 752c0 70 50 122 120 125 3 0 6 0 9 0q289 0 578 0c55 0 99-28 118-75a128 128 0 0 0 9-45c1-95 0-191 0-286 0-14-6-24-18-28-10-4-23-2-29 7a50 50 0 0 0-8 25c0 79 0 159 0 238 0 13 0 27 0 40-1 41-29 69-70 69q-290 0-581 0c-45 0-72-28-72-73q-1-186 0-372z m502-251a248 248 0 0 0 497-1c0-137-112-249-249-248-137 1-248 112-248 249z m56-1a193 193 0 0 1 386 0c0 106-87 193-193 193s-193-87-193-193z m-197 316h-238a105 105 0 0 0-12 0c-15 2-24 13-25 27a27 27 0 0 0 24 28 56 56 0 0 0 9 0h486c19 0 31-10 32-27a27 27 0 0 0-23-27 83 83 0 0 0-13-1z m1 238q122 0 243 0c19 0 32-11 32-28a27 27 0 0 0-23-27 88 88 0 0 0-14-1h-478a101 101 0 0 0-11 1c-15 2-25 13-25 27a27 27 0 0 0 25 28 92 92 0 0 0 10 0z m-107-421q-69 0-137 0c-12 0-22 3-28 14a27 27 0 0 0 17 40 52 52 0 0 0 12 2q136 0 273 0a46 46 0 0 0 16-3 27 27 0 0 0 16-31c-3-13-14-22-30-22-46 0-92 0-139 0z m-43-183c-33 0-65 0-97 0-15 0-25 9-28 21s2 25 13 31a38 38 0 0 0 16 3q96 1 192 0c18 0 30-11 30-27s-13-28-31-28c-32 0-63 0-95 0z m512-6c0 3 0 5 0 8 0 53-1 107 0 161 0 22 21 35 39 26 11-6 16-15 16-27 0-33 0-66 0-99v-13h48c11 0 21 0 32 0 15-1 26-13 27-27s-11-28-27-28c-44-1-89-1-135-1z" horiz-adv-x="1055" />

<glyph glyph-name="travis-logo" unicode="&#xe806;" d="M646 144c-33-108-98-182-208-209-75-18-150-17-223 7-95 31-158 96-191 190-30 85-32 173-3 260 37 112 114 185 229 214 90 22 177 15 257-35 54-33 92-81 117-139a53 53 0 0 1 8-14v89h125c0 30 5 58-7 85-9 21-27 28-47 29-27 1-53 0-80 0v133c68 4 136 13 202-13 64-26 100-75 111-142 4-25 2-50 3-74 1-5 0-10 0-16h72c0 14 0 27 0 41 0 31 3 62 16 92 27 64 76 100 144 112 52 9 103 3 156 0v-134c-18 0-36 1-54 2-59 2-77-15-80-73-1-13 0-26 0-41h125v-84h2c9 17 17 34 28 49 70 101 169 146 291 144 69-2 131-22 186-66 44-36 75-82 95-135 23-61 31-124 26-190h-473c-12-73 38-147 111-162 57-12 111-7 157 33 12 11 21 26 32 39 2 3 6 8 9 8 51 0 101 0 154 0-8-21-16-40-24-58-46-96-124-145-227-159-63-8-125-4-186 17-94 33-156 98-188 191-28 82-28 165-5 247a15 15 0 0 1 0 4h-113v-15c-1-105-1-210-2-315a29 29 0 0 0-6-18c-55-61-110-121-166-182a41 41 0 0 1-4-6l-3 2v534h-72v-534l-3-2c-3 4-7 8-10 11-53 58-106 116-159 175a35 35 0 0 0-8 21c-1 104-2 209-2 314 0 4 0 9 0 15h-116a464 464 0 0 0 15-160h-473c-12-74 38-147 111-162 57-12 111-7 157 33 13 11 21 26 32 39 3 3 6 8 10 8 50 0 100 0 152 0z m-170 197c-19 111-74 150-175 137-67-8-124-76-117-137z m1289 0c-22 120-79 144-159 139-78-4-131-61-134-139z m410-319v-82h-171v910h180v-330l4-2a29 29 0 0 0 2 6c36 52 89 77 150 88 69 13 134 2 193-37 46-31 78-74 100-123 26-58 34-118 34-181 0-63-8-124-34-182-37-83-97-141-187-160a302 302 0 0 0-206 29 140 140 0 0 0-51 48c-3 5-7 11-11 17z m3 249c0-45 7-89 26-130 50-105 189-107 244-21 21 33 32 69 36 107 6 59 3 117-24 171-25 50-64 80-121 83-58 2-101-24-130-74-24-42-30-89-31-136z m1177-46h-475c3-56 13-109 64-142 28-19 60-24 93-24 50-1 92 14 126 51a85 85 0 0 1 16 23c4 8 8 11 18 11 44 0 88 0 133 0h14c-26-79-66-145-142-184-54-27-111-37-171-36-51 0-101 8-148 29-80 36-133 97-162 178-30 87-32 175-3 262 38 112 115 184 229 213 90 22 177 15 258-35 51-32 88-77 113-131 32-68 42-139 37-215z m-474 116h292c-15 101-70 148-162 139-79-7-129-67-130-139z m579 138h-109v120h109v197h181v-196h132v-121h-131c0-5-1-10-1-14q0-155 0-310a255 255 0 0 1 3-35c4-26 16-40 42-42 29-2 57 0 87 0v-138c-11-2-22-3-32-4-57-3-113-5-168 6-70 15-111 61-112 133-2 67-1 135-1 202q0 93 0 186z" horiz-adv-x="3773" />

<glyph glyph-name="odd-select" unicode="&#xe807;" d="M786 766c9 14 18 28 29 42 3 4 10 9 15 9 4 0 9-8 11-13 12-43 24-85 35-127 5-20-3-32-24-33-43-4-87-8-130-12-6 0-14 2-18 6-2 3 2 12 5 17 9 14 19 28 29 43a406 406 0 0 1-128 58 423 423 0 0 1-524-346c-35-223 116-436 338-479 28-5 42-25 38-49s-26-36-53-30c-209 41-366 203-402 410-47 274 141 537 414 581 127 21 245-4 354-72 2-1 5-3 8-5 0 0 1 0 3 0z m-315-381c-2 49-5 99-7 149-1 26 15 45 39 45s43-18 42-43c-3-63-6-125-9-188-2-37-3-75-5-112a140 140 0 0 0-2-22c-3-12-10-20-24-20s-23 6-25 20c-3 26-4 52-5 78-1 31 0 62 0 93z m344-338c3 7 5 16 10 23a195 195 0 0 0 19 24 40 40 0 0 0 55 6 40 40 0 0 0 10-53 192 192 0 0 0-24-30c-12-12-27-15-44-9-15 7-24 21-26 39z m193 303c0-6 0-11 0-16a40 40 0 0 0-38-38c-20-2-39 11-42 32a164 164 0 0 0-1 42c3 22 22 36 43 35 21-2 37-18 38-40 0-5 0-10 0-15z m-22-150c-3-10-8-28-17-43-10-16-32-20-50-12a39 39 0 0 0-21 46 261 261 0 0 0 12 34 39 39 0 0 0 44 23c20-5 33-20 32-48z m-438-305a36 36 0 0 0 24 32 169 169 0 0 0 43 9c20 2 37-13 41-33a40 40 0 0 0-26-45 200 200 0 0 0-39-8c-23-2-44 17-43 45z m436 605c1-27-12-43-32-48a40 40 0 0 0-44 23 280 280 0 0 0-12 33 40 40 0 0 0 19 46c17 9 40 6 50-10 10-16 15-34 19-44z m-183-541c4-28-59-66-83-51-26 16-31 51-6 69a216 216 0 0 0 30 19 41 41 0 0 0 59-37z m-268 190a29 29 0 0 0-58 0 30 30 0 0 0 29 29 30 30 0 0 0 29-29z" horiz-adv-x="1008" />

<glyph glyph-name="players" unicode="&#xe808;" d="M500 632c0 0 0 0 0 0 0 0 0 0 1 0 60 0 108 48 108 108 0 10-1 19-3 28-12 47-55 81-106 81 0 0 0 0 0 0 0 0 0 0-1 0-60 1-108-48-108-108 0-10 1-19 3-28 12-47 55-81 106-81z m1-1h-1c-50 0-94 34-106 82-3 9-4 19-4 28 0 60 49 109 109 109h1c50 0 94-34 106-82 3-9 4-18 4-28 0-60-49-109-109-109z m-2 218c-59 0-108-49-108-108 0-9 2-19 4-28 12-47 55-81 105-81h1c59 0 108 49 108 108 0 9-1 19-4 28-12 47-55 81-105 81h-1z m116-263h-28l-27-136h-32l-8 91c2 14 8 27 15 41 0 0 1 2 1 3l0 0c0 0 0 0 0 0 0 1 0 1 0 1-38 0-35 0-72 0l0 0c0 0 0 0 0-1h0l0 0c1-1 2-3 2-3 5-12 10-23 13-35 1-2 1-4 1-5l-8-92h-32l-27 136h-27c-42 0-75-34-75-75v-217c0-42 33-75 75-75h9v-316c0-29 24-53 53-53 27 0 49 20 52 47 3-26 25-47 52-47 30 0 53 24 53 53v316h10c41 0 74 34 74 75v217c0 42-33 75-74 75z m167 46c0 0 0 0 0 0 0 0 0 0 1 0 60 0 108 48 108 108 0 10-1 19-3 28-12 47-55 81-105 81-1 0-1 0-1 0 0 0 0 0 0 0-60 0-109-48-109-108 0-10 1-19 3-28 12-47 55-81 106-81z m1-1h-1c-50 0-94 34-106 82-3 9-4 18-4 28 0 60 49 109 110 109h1c50 0 93-34 106-82 2-9 3-18 3-28 0-60-49-109-109-109z m-1 218c-60 0-109-49-109-108 0-10 2-19 4-28 12-47 55-81 105-81h1c59 0 108 49 108 108 0 9-1 19-4 28-12 47-55 81-104 81h-1z m115-263h-28l-27-136h-32l-8 91c2 14 8 27 15 41 0 0 1 2 1 3 0 0 0 0 0 0 0 1 0 1 0 1-38 0-35 0-72 0l0 0c0 0 0 0 0-1h0l0 0c1-1 2-3 2-3 5-12 11-23 14-35 0-2 0-4 1-5l-9-92h-29v-156c0-38-19-71-48-91v-300c0-29 24-53 53-53 27 0 49 20 52 47 3-26 25-47 53-47 29 0 52 24 52 53v316h10c41 0 74 34 74 75v217c0 42-33 75-74 75z m-679 46c0 0 0 0 0 0 0 0 0 0 1 0 60 0 108 48 108 108 0 10-1 19-3 28-12 47-55 81-106 81 0 0 0 0 0 0 0 0 0 0-1 0-60 0-108-48-108-108 0-10 1-19 3-28 12-47 55-81 106-81z m1-1h-1c-50 0-94 34-106 82-3 9-4 18-4 28 0 60 49 109 109 109h1c50 0 94-34 106-82 3-9 4-18 4-28 0-60-49-109-109-109z m-2 218c-59 0-108-49-108-108 0-10 1-19 4-28 12-47 55-81 105-81h1c59 0 108 49 108 108 0 9-2 19-4 28-12 47-55 81-105 81h-1z m58-555v156h-29l-8 91c2 14 8 27 14 41 0 0 2 2 2 3 0 0 0 0 0 0 0 1 0 1 0 1-38 0-35 0-72 0l0 0c0 0 0 0 0-1h0l0 0c0-1 2-3 2-3 5-12 10-23 13-35 1-2 1-4 1-5l-8-92h-32l-27 136h-28c-41 0-74-34-74-75v-217c0-42 33-75 74-75h10v-316c0-29 23-53 53-53 27 0 49 20 52 47 3-26 25-47 52-47 29 0 53 24 53 53v300c-29 20-48 53-48 91z" horiz-adv-x="1000" />

<glyph glyph-name="profit" unicode="&#xe809;" d="M270 728l27-11c-19-12-27-23-25-34 2-11 12-21 30-28 16-7 36-11 59-12 23-1 58 6 106 19 11 3 20 5 27 6 6 0 11 0 16-2 3-2 12-6-12-16-15-7-32-10-48-9-13 1-26-1-33-6l-15-9c-6-4-7-9-3-14 4-4 13-7 24-8 36-4 71 0 105 12l37-16c13-6 34-6 47 0 13 5 13 15 0 20l-38 17c16 10 25 21 26 32 0 12-10 23-30 32-15 6-31 10-49 11-19 2-36 1-52-2-15-3-39-9-70-17-13-4-22-6-27-6-4 0-8 1-11 2-11 5-2 11 7 15 12 5 25 7 38 7 13 0 25 3 31 8l9 7c5 4 5 9-1 14-6 4-16 7-28 7-24 0-48-3-73-10l-27 12c-13 6-34 6-47 0-13-6-13-15 0-21z m573-146c2 9 3 18 3 28v29c0 60-45 115-126 154-75 37-174 57-279 57-105 0-205-20-280-57-81-39-125-94-125-154v-29c0-59 43-113 122-153-2-9-4-20-4-27v-6c-76-39-118-92-118-150v-30c0-40 20-78 58-111-5-14-8-28-8-42v-30c0-60 45-115 126-154 75-37 174-57 279-57 105 0 205 20 280 57 81 39 125 94 125 154v30c0 40-20 78-58 110 5 14 8 28 8 43v5c77 39 119 93 119 151v30c0 58-44 112-122 152z m-751 83c12 30 44 59 92 82 68 33 159 51 257 51 97 0 188-18 257-51 48-23 80-52 91-82-41-72-185-125-348-125s-307 53-349 125z m0-366c10 24 33 48 67 68 13-47 55-89 121-121 75-37 174-57 279-57 11 0 21 0 31 1-46-10-97-16-149-16-163 0-307 53-349 125z m748-183c-42-72-186-125-349-125-141 0-269 40-327 98 75-36 173-56 277-56 105 0 204 20 279 57 39 19 70 41 91 66 14-13 23-26 29-40z m-281 214c-142 0-270 40-328 98 63-19 135-29 210-29 105 0 204 20 279 57 46 22 80 49 101 79 45-23 76-51 87-80-41-72-186-125-349-125z" horiz-adv-x="1000" />

<glyph glyph-name="terminal" unicode="&#xe80a;" d="M976 754h-952c-13 0-24-11-24-24v-657c0-14 11-24 24-24h358v-57c0-1 0-1 0-2h-51c-12 0-22-10-22-22 0-12 10-22 22-22h350c12 0 22 10 22 22 0 12-10 22-22 22h-51c0 1 0 1 0 2v57h346c13 0 24 10 24 24v657c0 13-11 24-24 24z m-43-578c0-13-11-24-24-24h-818c-13 0-24 11-24 24v498c0 13 11 24 24 24h818c13 0 24-11 24-24v-498z" horiz-adv-x="1000" />

<glyph glyph-name="user_action" unicode="&#xe80b;" d="M308 626h309c8 0 15 6 15 14 0 8-7 15-15 15h-309c-8 0-14-7-14-15 0-8 6-14 14-14z m-275-144h308c8 0 15 7 15 15s-7 14-15 14h-308c-9 0-15-6-15-14s6-15 15-15z m82-151c0-8 7-15 15-15h309c8 0 14 7 14 15s-6 15-14 15h-309c-8 0-15-7-15-15z m177-171h-277c-8 0-15-6-15-14s7-15 15-15h277c8 0 15 7 15 15s-7 14-15 14z m499 373c44 0 80 36 80 81s-36 80-80 80c-45 0-80-36-80-80 0-45 35-81 80-81z m132 24c-46-65-108-72-174-33-5 3-25 14-29 16-107 64-214 39-285-61-31-43 40-83 70-41 37 52 84 67 135 50-26-45-49-91-82-155-32-65-104-116-173-76-49 29-94-42-45-71 94-55 205-21 261 50 2-1 4-2 6-3 46-16 106-58 125-74 18-15 50-92 68-130 23-47 96-13 74 34-22 44-57 132-85 154-22 17-66 51-102 69 25 48 50 96 78 143 86-27 169 4 228 87 30 42-40 83-70 41z" horiz-adv-x="1000" />

<glyph glyph-name="vouchers" unicode="&#xe80c;" d="M0 260c2 6 3 12 6 17a68 68 0 0 0 12 16q269 270 538 539c24 23 57 24 80 1 38-37 76-75 114-113 0-1 1-1 1-2-18-20-27-44-22-71 2-20 11-36 26-49 29-26 77-30 113 3 1-1 2-2 4-3q54-55 109-110c25-25 25-58 0-83q-265-264-529-529c-12-12-25-23-42-26h-14c-18 3-30 14-43 27-33 34-67 67-100 101a39 39 0 0 1-5 3c36 39 27 89 3 115-14 15-31 24-51 26-26 3-49-6-68-23-1 0-1 1-2 1q-56 57-113 114a59 59 0 0 0-11 15c-3 6-4 12-6 18z m577-181c2 1 3 2 4 3q171 172 343 344c13 13 13 29 0 42-20 20-41 40-61 61-2 2-4 3-8 2a133 133 0 0 0-68-6 137 137 0 0 0-106 179c1 4 0 7-3 10-20 19-39 39-59 59-15 14-30 14-44 0l-342-341c-1-2-2-3-4-5 2-1 3-2 4-3 8-9 16-17 24-25 7-6 7-14 1-20s-13-13-19-19c-6-6-14-6-20 0-4 4-9 9-13 13-5 5-10 11-15 16-2-1-2-2-3-2q-56-57-113-114c-12-12-12-28 0-40 21-21 41-42 62-62 2-3 4-3 7-2a133 133 0 0 0 68 6c85-14 135-99 107-180-1-3-1-6 2-9 20-20 40-40 60-60 14-14 30-14 44 0q55 55 110 110c1 1 2 3 3 4-9 10-18 19-27 28-7 7-7 15-1 22 6 5 11 10 16 15 9 9 16 9 24 1 9-9 18-18 27-27z m-198 194c-2-4-3-8-6-11-5-6-12-12-18-18s-14-6-20 0q-29 29-57 57c-6 6-6 14 0 21 6 6 12 12 18 18 6 6 14 6 21 0q28-29 56-57c3-3 4-7 6-10z m82-151c-4 2-7 3-10 6q-29 28-57 57c-6 6-6 14 0 20q9 10 19 19c6 5 13 6 19 0q29-29 58-58c6-6 6-14 0-20-6-6-12-12-19-18-2-3-6-4-10-6z" horiz-adv-x="1000" />

<glyph glyph-name="basketball" unicode="&#xe80d;" d="M352 700c-6 13-14 24-24 33-36 29-102 24-122 22-100-73-172-182-197-308 64 122 189 215 343 253z m126 150c-71-3-139-21-199-51 26-4 54-13 77-32 19-15 32-35 40-58 27 4 54 7 82 8v133z m263-938c6 2 135 85 86 277-14 55-54 103-96 154-63 78-135 165-137 297 0 9 0 17 1 25-24 4-48 6-73 7v-822c79 3 152 29 219 62z m-219 938v-133c28-1 55-4 82-8 8 23 21 43 40 58 23 19 51 28 77 32-60 30-128 48-199 51z m-514-589c8-91 56-171 113-237-10 44-11 103 9 177 18 64 60 115 105 170 61 76 125 154 127 270 0 5 0 10-1 15-203-49-370-212-353-395z m785 494c-24 3-87 6-121-23-10-8-18-19-24-32 154-38 279-131 343-253-25 126-97 236-198 308z m200-494c16 183-150 346-354 395-1-5-1-10-1-15 2-116 66-194 128-270 44-55 87-106 104-170 20-74 19-133 9-177 57 66 105 146 114 237z m-738-349c68-33 144-59 223-62v822c-25-1-49-3-73-7 1-8 1-16 1-25-2-132-74-219-137-297-42-51-82-99-96-154-52-199 81-277 82-277z" horiz-adv-x="1000" />

<glyph glyph-name="soccer" unicode="&#xe80e;" d="M853 704c-45 46-99 82-158 107-62 26-128 39-195 39-67 0-133-13-195-39-59-26-113-62-158-107-46-46-82-100-108-159-26-62-39-127-39-195 0-67 13-133 39-195 26-59 62-113 108-159 45-46 99-82 158-107 62-26 128-39 195-39 67 0 133 13 195 39 59 25 113 61 159 107 45 46 82 100 107 159 26 62 39 127 39 195 0 67-13 133-39 195-26 59-62 113-108 159z m-630 33c5 4 9 7 14 11 24 17 51 30 78 42 58 24 122 37 185 37 42 0 85-6 126-17-16-6-36-19-69-47-27 3-55 3-83 1-36-4-73-12-108-25-33-11-58-24-75-34-27 10-61 21-78 26 3-1 9 5 10 6z m456-125l-86-233-205-40-169 175c11 80 65 150 65 150 1 0 36 26 93 46 33 12 67 19 101 22 27 3 55 2 82-1l119-119z m-638-245c-5-34-6-69-3-105-4 8-8 15-10 21-3 22-5 44-5 67 0 71 15 137 43 198-3-32-2-65 0-89-11-30-20-61-25-92z m42-182c-5 18-11 43-13 74-4 35-3 70 3 103 4 26 10 51 19 75 34 29 80 46 105 54l167-172-18-188-162-55c-42 31-75 71-101 109z m494-273c-36-24-128-29-165-31-41 8-81 21-118 39-33 16-64 36-93 58 1 1-4 52-4 70l165 55 189-82 26-109c0 0 0 0 0 0z m315 166c-28-40-62-78-103-107-38-27-89-36-134-44-4 0-47-7-48-6l-26 108 134 139 177 17c2-28 6-70 8-95-3-4-5-8-8-12z m3 142c-1-1-2-2-2-4l-176-16-95 166 86 234 121-8c25-21 48-45 68-71 24-33 42-68 55-106-13-117-44-175-57-195z m63 263c-11 20-23 39-37 57-21 30-47 56-76 80-6 27-21 69-60 112 1 0 1-1 2-1 3-2 5-4 7-6 28-21 52-45 74-72 41-50 72-107 90-169 0-1 0-1 0-1z" horiz-adv-x="1000" />

<glyph glyph-name="sports" unicode="&#xe80f;" d="M399 350c0-44 28-81 68-95v190c-40-14-68-51-68-95z m453-183c-18 0-33 15-33 33v300c0 19 15 33 33 33h148v86c0 26-21 47-47 47h-420v-152c77-15 135-83 135-164s-58-149-135-164v-152h420c26 0 47 21 47 47v86h-148z m-251 183c0 44-28 81-68 95v-190c40 14 68 51 68 95z m-134-164c-77 15-135 83-135 164s58 149 135 164v152h-420c-26 0-47-21-47-47v-86h148c18 0 33-14 33-33v-300c0-18-15-33-33-33h-148v-86c0-26 21-47 47-47h420v152z" horiz-adv-x="1000" />

<glyph glyph-name="tennis" unicode="&#xe810;" d="M509 850c1-7 1-15 1-22 0-79-31-153-87-209l-89-89c-46-46-71-108-71-173s25-127 71-173c46-46 108-72 173-72 65 0 127 26 173 72l89 89c56 56 130 87 209 87 7 0 15-1 22-1-2 125-51 249-146 345-96 95-220 144-345 146z m296-613l-89-89c-56-56-130-87-209-87-79 0-153 31-209 87-56 56-87 130-87 209s31 153 87 209l89 89c46 46 72 108 72 173 0 7-1 14-1 20-114-9-225-57-312-144-195-196-195-512 0-708 196-195 512-195 708 0 86 87 135 198 144 311-6 1-13 1-20 1-65 0-127-25-173-71z" horiz-adv-x="1000" />

<glyph glyph-name="movement" unicode="&#xe811;" d="M463 734v-128h74v128c0 10 8 18 18 18h18l-73 98-73-98h18c10 0 18-8 18-18z m-286-138c3 3 8 5 13 5s9-2 13-5l90-91 52 52-91 91c-3 3-5 8-5 12 0 5 2 10 5 13l13 13-120 18 17-121 13 13z m67-209h-128c-10 0-18 8-18 18v18l-98-73 98-73v18c0 10 8 18 18 18h128v74z m101-244l-52 52-90-91c-4-3-9-5-13-5-5 0-10 2-13 5l-13 13-17-121 120 18-13 13c-3 3-5 8-5 13 0 4 2 9 5 13l91 90z m192-177v128h-74v-128c0-10-8-18-18-18h-18l73-98 73 98h-18c-10 0-18 8-18 18z m286 138c-7-7-18-7-25 0l-91 91-52-52 91-90c3-4 5-9 5-13 0-5-2-10-5-13l-13-13 121-18-18 121-13-13z m177 246l-98 73v-18c0-5-1-10-5-13-3-3-8-5-13-5h-128v-74h128c5 0 10-1 13-5 4-3 5-8 5-13v-18l98 73z m-345 207l52-52 91 91c3 3 8 5 12 5 5 0 10-2 13-5l13-13 18 121-121-18 13-13c3-3 5-8 5-13s-2-9-5-12l-91-91z" horiz-adv-x="1000" />

<glyph glyph-name="agent" unicode="&#xe812;" d="M0-98c1 2 1 5 2 7a44 44 0 0 0 43 31c19 0 38 0 58 0h6v357h62v-356h267v373h46v-373h464v356h71v-357h5c12 0 24 0 36 0 23 0 40-13 45-36a20 20 0 0 1 1-2v-14c0-1-1-2-1-4-5-15-14-26-30-31a109 109 0 0 0-11-3h-1022a25 25 0 0 1-3 1c-17 2-28 12-35 27a109 109 0 0 0-4 10z m992 948v-44h-882v44z m92-374h-1062c5 15 10 29 15 44q43 127 86 254c1 4 3 5 7 5q423 0 846 0h6q51-152 102-303z m-749 17c15 0 28 0 42 0 1 0 3 3 3 4 4 22 7 44 11 67q12 79 24 158c2 13 4 25 6 37h-45c-13-88-27-177-41-266z m354 267q21-134 41-266h44c-13 89-27 177-41 266z m152 0c0-2 0-3 1-4q21-86 42-172c7-28 15-57 22-86 0-2 2-5 4-5 13 0 27 0 41 0l-66 267z m-683-267c14 0 26 0 38 0 5 0 7 1 8 6q27 108 54 217c4 14 7 29 11 44h-44c-22-89-44-177-67-267z m414 0v266h-43v-266z m509-45a59 59 0 0 1 0-7c0-4-2-9 2-13 1 0 1-1 1-2-3-32-21-68-60-78-47-13-90 15-101 62a113 113 0 0 0-2 15c0 4-1 5-5 5s-7 0-11 0c-2-28-11-52-33-69-15-11-32-16-50-16-23 0-42 9-58 26-15 16-21 36-22 58a5 5 0 0 1-1 0c-14 2-14 2-16-12-6-31-21-55-52-67-47-18-96 10-107 60a123 123 0 0 0-3 16c0 3-1 4-4 4-4 0-7 0-11 0-3-29-13-55-38-72-16-11-34-14-53-13-40 4-64 31-74 85-3 0-6 0-9 0-4 0-6-1-6-5a94 94 0 0 0-11-37c-16-31-45-46-80-42-31 2-57 25-67 56-2 8-3 16-4 23-1 4-2 5-5 5s-7 0-11 0c-3-28-12-52-34-69-15-11-31-16-50-16-22 1-42 9-57 26-15 16-21 36-23 58l-6 1v18z m-724-443c-19 1-31 8-38 24-7 15-4 30 8 43 4 4 5 8 5 13q0 60 0 121a12 12 0 0 1-4 9c-13 13-16 30-9 45 6 14 21 24 37 23 17-1 29-9 35-24 7-16 3-30-8-42-5-6-7-11-7-18 0-38 0-76 0-115a13 13 0 0 1 5-10c25-25 12-56-10-65-5-2-10-3-14-4z m465 286l15-15-266-265-14 14z m-108-4l-165-166-13 15 162 163c6-4 11-8 16-12z m12-276l-14 15 163 163 16-13z" horiz-adv-x="1106" />

<glyph glyph-name="icon-betting-limits" unicode="&#xe813;" d="M739 790l-570-815c33-29 68-53 106-72l567 812c-31 29-66 54-103 75z m0 0m144-119l-553-791c54-20 111-30 170-30 134 0 259 52 354 146 94 95 146 220 146 354 0 119-41 231-117 321z m0 0m-383 179c-134 0-259-52-354-146-94-95-146-220-146-354 0-124 45-241 127-333l558 798c-58 23-121 35-185 35z m0 0" horiz-adv-x="1000" />

<glyph glyph-name="support" unicode="&#xe814;" d="M132 671c3-1 6-2 8-4l255-255 46 46-255 255c-2 2-4 5-5 8l-16 64-106 61-52-52 61-107z m0 0m226-581l404 404c5 5 11 7 17 5 54-14 110-2 153 32 44 34 69 86 69 141 0 3 0 7-1 10l-94-94c-4-5-11-7-18-4l-107 35c-5 2-9 6-11 12l-36 106c-2 7 0 14 5 19l94 94c-57 3-112-21-148-64-36-44-49-102-35-157 1-6 0-13-5-17l-404-404c-5-5-11-7-17-5-14 4-29 5-43 5-77 1-145-47-171-120-25-72-1-153 59-200 61-48 144-51 209-9 64 42 95 120 76 194-2 6 0 13 4 17z m-134-131l-86 0-43 71 43 72 86 0 43-72z m69 209l392 392 25-26-392-392z m0 0m562-309c39-15 84-5 114 25 30 30 40 74 25 114z m0 0m114 178l-200 200c-22-19-55-17-75 3-21 21-22 53-4 75l-28 29-153-153 29-29c22 19 54 17 75-3 20-21 22-53 3-75l200-200c2-3 4-5 7-7l152 153c-2 2-4 5-6 7z m-106-73l-178 178 25 26 179-179z m0 0" horiz-adv-x="1000" />

<glyph glyph-name="alert" unicode="&#xe815;" d="M979 100l-353 650c-57 95-195 95-252 0l-353-650c-58-97 12-221 126-221h706c114 0 184 123 126 221z m-479-104c-32 0-59 26-59 59 0 32 27 58 59 58 32 0 59-26 59-58 0-33-27-59-59-59z m59 234c0-32-27-58-59-58-32 0-59 26-59 58v293c0 33 27 59 59 59 32 0 59-26 59-59v-293z" horiz-adv-x="1000" />

<glyph glyph-name="icon-admin" unicode="&#xe816;" d="M538 634c-1 24-26 20-50 20 18-4 35-11 50-20z m-254 60c-93 0-135-117-62-175 26 67 76 115 141 134-18 25-47 41-79 41z m-191-157c4-12 8-24 14-35l-30-30c-8-8-8-21 0-30l53-53c4-4 10-6 15-6 6 0 11 2 15 6l30 30c5-2 10-4 14-6 0 1 0 1 0 1 0 25 3 49 8 70-36 24-61 65-61 112 0 72 60 132 133 132 49 0 91-28 114-68 24 3 47 3 75-2-4 11-8 21-13 31l30 30c4 4 6 10 6 15 0 6-2 11-6 15l-53 53c-4 4-10 6-15 6-5 0-11-2-15-6l-30-30c-11 6-23 11-35 14v43c0 12-9 21-21 21h-75c-12 0-21-9-21-21v-43c-12-3-24-8-35-14l-30 30c-4 4-10 6-15 6-5 0-11-2-15-6l-53-53c-4-4-6-9-6-15 0-6 2-11 6-15l30-30c-6-11-10-23-14-35h-43c-12 0-21-9-21-21v-75c0-12 9-21 21-21h43z m655-405c33 19 56 54 56 94 0 60-48 108-108 108-21 0-40-6-56-16-10-40-26-78-46-110 57-11 111-38 154-76z m223 135c0 13-10 23-23 23h-46c-4 13-9 25-15 37l32 33c5 4 7 10 7 16 0 6-2 12-7 16l-57 57c-5 5-10 7-16 7-6 0-12-2-16-7l-33-32c-12 6-24 11-37 15v46c0 13-10 23-23 23h-81c-6 0-11-2-15-5 7-26 11-53 11-82 0-18-1-37-4-55 15 5 31 9 48 9 78 0 142-64 142-142 0-49-26-93-65-118 28-31 51-68 65-110 3-1 5-1 8-1 6 0 11 2 16 6l57 58c5 4 7 10 7 16s-2 12-7 16l-32 33c6 12 11 24 15 37h46c6 0 12 2 16 7 5 4 7 10 7 16l0 81z m-179-289c-35 103-127 174-234 183-35-38-80-62-130-62-50 0-94 24-130 62-107-9-199-80-234-183l-19-57c-6-17-3-35 7-49 10-14 26-22 43-22h666c17 0 34 8 44 22 10 14 12 32 7 49l-20 57z m-537 436c0-127 77-264 173-264 96 0 174 137 174 264 0 265-347 265-347 0z" horiz-adv-x="1000" />

<glyph glyph-name="icon-alert" unicode="&#xe817;" d="M979 100l-353 650c-57 95-195 95-252 0l-353-650c-58-97 12-221 126-221h706c114 0 184 123 126 221z m-479-104c-32 0-59 26-59 59 0 32 27 58 59 58 32 0 59-26 59-58 0-33-27-59-59-59z m59 234c0-32-27-58-59-58-32 0-59 26-59 58v293c0 33 27 59 59 59 32 0 59-26 59-59v-293z" horiz-adv-x="1000" />

<glyph glyph-name="admin" unicode="&#xe819;" d="M303 726c22 0 41 17 41 37 0 21-19 37-41 37-23 0-42-16-42-37 0-20 19-37 42-37z m16-2l36-198c0 0 5 5 14 13 37 33 143 107 270-1 4-4 9-8 13-12l50 193c0 0-6 25-33 15l-57-51 5 52c0 0-8 11-18 2l-34-44-45 71c0 0-12 12-33 0l-40-63c-1 0-4-1-6-3l-27 39c0 0-8 12-17-1l3-56-56 54c0 0-17 7-25-10z m184-874l0 0c-6 0-12 0-18 0-8 1-178 10-290 60-9 3-29 15-29 58 0 8 6 166 57 241 2 3 18 25 55 39 52 16 101 39 107 50l16 59 22-58c8-21 39-81 74-81 24 0 52 29 79 83l37 72 1-77c2-3 12-13 42-23 18-6 112-38 132-81 2-6 58-135 44-252 0-5-4-20-28-36l-3-2c-5-2-127-52-298-52z m-293 97c106-48 275-57 277-57 5 0 11 0 16 0 153 0 266 43 281 49 5 3 8 6 9 7 11 108-42 228-42 230-9 19-69 46-107 58-21 8-36 16-46 23-32-54-65-80-101-80-48 0-81 48-99 79-28-20-75-37-107-46-24-9-35-24-36-24-43-65-49-217-49-219 0-12 3-18 4-20z m156 480c2-14 8-20 11-22 8-69 67-140 121-140 61 0 119 75 128 140 4 2 10 8 12 22 0 0 13 47-5 41 2 5 4 12 6 20-127 109-233 35-270 2 1-7 2-14 3-22-20 9-6-41-6-41z" horiz-adv-x="1000" />

<glyph glyph-name="icon-coupons" unicode="&#xe81a;" d="M615-50c12 15 12 36 0 51-3 3 5-5-87 87-16 16-42 16-58 0-16-16-16-42 0-58l14-13h-68c-23 0-41-19-41-41s18-41 41-41h68l-14-14c-26-26-7-70 29-70 11 0 21 4 29 12 93 93 85 84 87 87z m176 900h-583c-23 0-41-18-41-41v-833c0-23 18-41 41-41h41c23 0 41 18 41 41 0 115 94 209 209 209s209-94 209-209c0-23 19-41 41-41h42c23 0 41 18 41 41v833c0 23-18 41-41 41z m-375-167h167c22 0 41-18 41-41s-19-41-41-41h-167c-23 0-41 19-41 41s18 41 41 41z m208-248h-250c-22 0-41 18-41 41s19 41 41 41h250c23 0 41-19 41-41s-18-41-41-41z" horiz-adv-x="1000" />

<glyph glyph-name="icon-credit" unicode="&#xe81b;" d="M910 694h-820c-50 0-90-41-90-90v-508c0-49 40-90 90-90h820c50 0 90 41 90 90v508c0 49-40 90-90 90z m-597-274c0-38-32-70-71-70h-47c-38 0-70 32-70 70v47c0 39 32 71 70 71h47c39 0 71-32 71-71z m401-159c-6 0-13 2-19 6-14 11-16 31-5 44 9 11 13 25 13 39s-4 28-13 39c-11 13-9 33 5 44 14 10 33 8 44-6 17-22 27-49 27-77s-10-55-27-77c-6-8-15-12-25-12z m101-67c-6-7-15-11-23-11-8 0-15 3-21 8-13 12-14 31-2 44 28 32 44 73 44 115s-16 83-44 115c-12 13-11 32 2 44 13 11 33 10 44-2 39-44 60-99 60-157s-21-113-60-156z" horiz-adv-x="1000" />

<glyph glyph-name="icon-dealer" unicode="&#xe81c;" d="M908-150v47c0 65-15 127-43 184-15 28-33 55-54 80l-215-311z m-772 232c-29-57-44-120-44-185v-47h318l-219 313c-22-25-40-52-55-81z m342-232l-72 378c-91 38-156 127-157 231h-138l125-165h-68z m413 609h-133c-1-104-66-193-157-231l-72-378 306 444h-68z m-351-248c-12-2-24-3-37-3-12 0-24 1-37 3l37-220z m-37 54c110 0 198 89 198 198 0 19-2 39-8 57h-379c-6-18-9-38-9-57 0-109 89-198 198-198z m283 314v58h-95l-18 151c-3 26-20 48-44 57-25 10-52 5-72-12l-46-40c-4-3-11-3-15 0l-47 40c-19 17-47 22-71 12-24-9-41-31-44-57l-18-151h-95v-58h565z" horiz-adv-x="1000" />

<glyph glyph-name="icon-e-vouchers" unicode="&#xe81d;" d="M432 506c0 27-22 49-49 49s-49-22-49-49v-49h49c27 0 49 22 49 49z m-57-107l68-67c11-12 11-30 0-42-6-5-14-8-21-8s-15 3-21 8l-67 67v-388h637c16 0 29 13 29 29v401z m477-313h-137c-16 0-29 13-29 30s13 29 29 29h137c16 0 29-13 29-29s-13-30-29-30z m0 118h-176c-16 0-29 13-29 29s13 29 29 29h176c16 0 29-13 29-29s-13-29-29-29z m-518 398c15 7 31 12 49 12 59 0 107-48 107-108 0-17-4-34-12-49h522v245c0 16-13 29-29 29h-637z m-203-145c-8 15-12 32-12 49 0 60 48 108 108 108 17 0 34-5 48-12v129h-246c-16 0-29-13-29-29v-245z m144 49c0 27-21 49-48 49s-49-22-49-49 22-49 49-49h48z m0-149l-67-67c-5-5-13-8-20-8s-15 3-21 8c-12 12-12 30 0 42l67 67h-234v-401c0-16 13-29 29-29h246z" horiz-adv-x="1000" />

<glyph glyph-name="icon-manager" unicode="&#xe81f;" d="M733 315c-128 0-232-104-232-233s104-232 232-232c130 0 235 104 235 232s-105 233-235 233z m72-204l-78-94c-6-7-14-11-23-11-1 0-2 0-3 0-10 2-19 8-23 16l-31 63c-8 14-2 32 13 39 14 8 32 2 39-13l11-22 50 59c10 13 29 14 41 4 12-11 14-29 4-41z m-84 572l-119 123c0 0 0 0 0 0-28 28-66 44-105 44h-377c-48 0-88-39-88-88v-760c0-48 40-88 88-88h376c-34 48-54 106-54 168 0 161 131 291 291 291 10 0 20 0 30-1v209c0 38-15 75-42 102z m-378-487h-156c-17 0-30 13-30 29s13 29 30 29h156c16 0 29-13 29-29s-13-29-29-29z m0 156h-156c-17 0-30 13-30 29s13 30 30 30h156c16 0 29-14 29-30s-13-29-29-29z m0 156h-156c-17 0-30 13-30 30s13 29 30 29h156c16 0 29-13 29-29s-13-30-29-30z m187-156h-31c-16 0-29 13-29 29s13 30 29 30h31c17 0 30-14 30-30s-13-29-30-29z m0 156h-31c-16 0-29 13-29 30s13 29 29 29h31c17 0 30-13 30-29s-13-30-30-30z" horiz-adv-x="1000" />

<glyph glyph-name="icon-players" unicode="&#xe820;" d="M518 196c-32-13-69-13-101 1-4 2-2 8 3 7 31-6 64-6 96 0 4 1 6-6 2-8z m239 498c-29 47-75 80-127 93 9 8 7 21-3 26-106 51-249 56-339-30-72-69-78-169-77-208 0-88 0-82 0-84 1-12 18-11 18 0v75c0 78 63 141 140 141h199c78 0 141-63 141-141v-75c0-11 17-12 18 0 0 2 0-6 0 109 0 27 10 53 29 72 3 3 4 6 5 9 0 6-1 9-4 13z m28-674v-92c0-9-7-16-15-16h-602c-9 0-16 7-16 16v92c0 89 73 162 162 162 13 0 25 3 35 10 6 4 14 3 19-1 59-48 142-48 201 1 5 4 13 4 19 1 10-8 23-11 36-11 89 0 161-73 161-162z m-142-43c0 8-7 15-16 15h-47c-8 0-15-7-15-15s7-16 15-16h47c9 0 16 7 16 16z m-75 699h-199c-60 0-109-49-109-110v-129c0-109 91-206 209-206 115 0 208 92 209 207v128c0 61-49 110-110 110z" horiz-adv-x="1000" />

<glyph glyph-name="icon-profit" unicode="&#xe821;" d="M295 259v58h59v236h-59v59h-59v-59h-58v-236h58v-58z m469 0v58h60l-2 471h-58v58h-59v-58h-58v-471h58v-58z m-235 0v58h59v354h-59v58h-58v-58h-59v-354h59v-58z m-308-390c33 25 77 38 118 38h262l399 233s-15 26-15 26c-25 44-85 54-128 28l-284-170h-190v59h176v117h-245c-110 0-208-41-293-126l-21-21 200-199z" horiz-adv-x="1000" />

<glyph glyph-name="icon-shop" unicode="&#xe822;" d="M714 422c-63-47-150-47-214 0-64-47-150-47-214 0-63-48-151-48-215 0 0 0 0 0 0-1v-464c0-59 48-107 108-107h178v393c0 20 16 36 36 36h214c20 0 36-16 36-36v-393h178c60 0 108 48 108 107v464c0 1 0 1 0 1-64-48-152-48-215 0z m-643 142c0-59 48-107 108-107 31 0 60 14 80 37 14 15 37 16 52 2 1-1 1-1 2-2 39-44 107-48 152-8 3 3 6 5 8 8 14 15 38 16 52 2 1-1 1-1 2-2 40-44 108-48 152-8 3 3 6 5 8 8 14 15 38 16 53 2 0-1 1-1 1-2 20-23 50-37 80-37 60 0 108 48 108 107h-858z m36 286c-15 0-29-10-34-24l-63-190h240v214h-143z m820-24c-5 14-19 24-34 24h-143v-214h240l-63 190z" horiz-adv-x="1000" />

<glyph glyph-name="icon-log-file" unicode="&#xe823;" d="M375 439h107v-178h-107z m554 197h-161a54 54 0 0 0-54 53v161h-464v-304h625a18 18 0 0 0 18-17v-358a18 18 0 0 0-18-17h-625v-233h679z m-26 35l-153 154v-136a18 18 0 0 1 18-18z m97 108h-153l112-113a18 18 0 0 0 5-12v-750a18 18 0 0 0-18-18h-625v-36h679z m-143-268h-857v-322h857z m-553-286h-161a18 18 0 0 0-18 18v232h36v-214h143z m214 18a18 18 0 0 0-18-18h-143a18 18 0 0 0-18 18v214a18 18 0 0 0 18 18h143a18 18 0 0 0 18-18z m214 161h-36v35h-107v-178h107v71h-53v36h71a18 18 0 0 0 18-18v-107a18 18 0 0 0-18-18h-143a18 18 0 0 0-17 18v214a18 18 0 0 0 17 18h143a18 18 0 0 0 18-18z" horiz-adv-x="1000" />
</font>
</defs>
</svg>
