<svg version="1.1" id="Layer_1" xmlns="http://www.w3.org/2000/svg" xmlns:xlink="http://www.w3.org/1999/xlink" x="0px" y="0px"
	 width="100%" viewBox="0 0 512 512" enable-background="new 0 0 512 512" xml:space="preserve">
<path fill="#000000" opacity="1.000000" stroke="none" 
	d="
M513.000000,44.000000 
	C513.000000,185.689987 513.000000,327.379974 512.632629,469.649658 
	C510.405487,478.337830 506.392944,485.390533 500.384247,490.937500 
	C491.970001,498.705170 481.556091,501.979553 470.188782,501.981812 
	C330.092987,502.009735 189.997208,502.009430 49.901440,501.958069 
	C45.324661,501.956390 40.736118,501.451630 36.173607,500.981842 
	C19.677616,499.283203 9.409952,489.589417 2.990724,474.979645 
	C2.517555,473.902771 1.672287,472.989380 1.000003,472.000000 
	C1.000000,328.976685 1.000000,185.953354 1.357749,42.372524 
	C5.616556,35.574398 8.623902,28.471197 13.623646,23.290985 
	C21.547676,15.080937 32.273705,12.023576 43.648037,12.020920 
	C181.754761,11.988679 319.861511,11.984900 457.968201,12.042616 
	C465.210815,12.045643 472.522675,12.155184 479.678497,13.126875 
	C489.195953,14.419259 497.478210,18.850060 503.135376,26.749212 
	C506.972137,32.106613 509.749084,38.223030 513.000000,44.000000 
M453.050964,385.427643 
	C452.887024,384.295868 452.881012,383.113190 452.535339,382.039978 
	C447.853149,367.503754 438.763763,356.553223 425.144470,349.706024 
	C413.304443,343.753387 400.938354,342.168976 388.012329,346.404205 
	C376.541168,350.162811 366.992004,356.516113 360.144501,366.449615 
	C351.639252,378.787994 348.079285,392.264282 351.634369,407.255371 
	C354.535553,419.489075 360.777100,429.329590 370.614105,437.273590 
	C380.093842,444.929077 391.026611,448.625000 402.720306,448.707581 
	C411.431824,448.769073 420.002319,446.286682 427.966187,441.722351 
	C438.905762,435.452576 446.212067,426.408905 450.970856,415.091980 
	C454.892548,405.765839 455.717804,396.031738 453.050964,385.427643 
M134.516968,164.051971 
	C153.463623,157.902725 167.747833,140.725815 169.848969,120.273216 
	C171.958313,99.740822 163.567642,82.859711 146.757385,71.631935 
	C128.593018,59.499714 105.482719,58.681828 86.281410,74.180031 
	C70.085060,87.252800 63.217743,103.897118 67.048767,124.457298 
	C70.738335,144.258316 82.839241,157.012100 101.424942,164.066147 
	C112.217438,168.162323 123.025085,167.662247 134.516968,164.051971 
M163.037399,422.585724 
	C171.238083,411.658447 172.560135,399.017822 170.491714,386.268066 
	C168.268768,372.565887 161.037888,361.280792 149.568558,353.120941 
	C136.324738,343.698608 121.840134,340.473419 105.944397,344.975067 
	C94.740715,348.147949 85.311554,354.195282 78.262207,363.374756 
	C69.883850,374.284851 65.204788,386.945038 67.216042,400.637329 
	C70.278168,421.483856 81.914459,436.448517 101.812187,444.254089 
	C110.664642,447.726807 119.978386,447.994446 129.269470,446.248871 
	C143.796326,443.519562 154.494308,435.022583 163.037399,422.585724 
M446.044678,138.519699 
	C450.363037,129.681778 452.142303,120.625381 451.216461,110.566849 
	C450.032013,97.698341 444.319672,87.218208 435.701752,78.604950 
	C428.443115,71.350266 419.379730,66.608170 408.650269,64.759422 
	C390.217529,61.583374 374.373199,66.800682 362.130371,79.815224 
	C347.515320,95.351509 342.735199,114.226173 351.080658,134.824478 
	C358.975708,154.311188 376.878937,167.390076 397.965485,167.853378 
	C419.565094,168.327988 435.245636,157.683868 446.044678,138.519699 
z"/>
<path fill="#FFFFFF" opacity="1.000000" stroke="none" 
	d="
M513.000000,43.531342 
	C509.749084,38.223030 506.972137,32.106613 503.135376,26.749212 
	C497.478210,18.850060 489.195953,14.419259 479.678497,13.126875 
	C472.522675,12.155184 465.210815,12.045643 457.968201,12.042616 
	C319.861511,11.984900 181.754761,11.988679 43.648037,12.020920 
	C32.273705,12.023576 21.547676,15.080937 13.623646,23.290985 
	C8.623902,28.471197 5.616556,35.574398 1.357749,41.907509 
	C1.000000,28.343367 1.000000,14.686731 1.000000,1.046840 
	C171.666672,1.046840 342.333344,1.046840 513.000000,1.046840 
	C513.000000,15.083348 513.000000,29.073015 513.000000,43.531342 
z"/>
<path fill="#FFFFFF" opacity="1.000000" stroke="none" 
	d="
M1.000003,472.468658 
	C1.672287,472.989380 2.517555,473.902771 2.990724,474.979645 
	C9.409952,489.589417 19.677616,499.283203 36.173607,500.981842 
	C40.736118,501.451630 45.324661,501.956390 49.901440,501.958069 
	C189.997208,502.009430 330.092987,502.009735 470.188782,501.981812 
	C481.556091,501.979553 491.970001,498.705170 500.384247,490.937500 
	C506.392944,485.390533 510.405487,478.337830 512.632629,470.114655 
	C513.000000,484.322815 513.000000,498.645630 513.000000,512.961182 
	C342.333313,512.953979 171.666656,512.953979 1.000000,512.953979 
	C1.000000,499.584412 1.000000,486.260864 1.000003,472.468658 
z"/>
<path fill="#FFFFFF" opacity="1.000000" stroke="none" 
	d="
M453.333801,385.760376 
	C455.717804,396.031738 454.892548,405.765839 450.970856,415.091980 
	C446.212067,426.408905 438.905762,435.452576 427.966187,441.722351 
	C420.002319,446.286682 411.431824,448.769073 402.720306,448.707581 
	C391.026611,448.625000 380.093842,444.929077 370.614105,437.273590 
	C360.777100,429.329590 354.535553,419.489075 351.634369,407.255371 
	C348.079285,392.264282 351.639252,378.787994 360.144501,366.449615 
	C366.992004,356.516113 376.541168,350.162811 388.012329,346.404205 
	C400.938354,342.168976 413.304443,343.753387 425.144470,349.706024 
	C438.763763,356.553223 447.853149,367.503754 452.535339,382.039978 
	C452.881012,383.113190 452.887024,384.295868 453.333801,385.760376 
z"/>
<path fill="#FFFFFF" opacity="1.000000" stroke="none" 
	d="
M134.211792,164.334106 
	C123.025085,167.662247 112.217438,168.162323 101.424942,164.066147 
	C82.839241,157.012100 70.738335,144.258316 67.048767,124.457298 
	C63.217743,103.897118 70.085060,87.252800 86.281410,74.180031 
	C105.482719,58.681828 128.593018,59.499714 146.757385,71.631935 
	C163.567642,82.859711 171.958313,99.740822 169.848969,120.273216 
	C167.747833,140.725815 153.463623,157.902725 134.211792,164.334106 
z"/>
<path fill="#FFFFFF" opacity="1.000000" stroke="none" 
	d="
M163.004608,422.956696 
	C154.494308,435.022583 143.796326,443.519562 129.269470,446.248871 
	C119.978386,447.994446 110.664642,447.726807 101.812187,444.254089 
	C81.914459,436.448517 70.278168,421.483856 67.216042,400.637329 
	C65.204788,386.945038 69.883850,374.284851 78.262207,363.374756 
	C85.311554,354.195282 94.740715,348.147949 105.944397,344.975067 
	C121.840134,340.473419 136.324738,343.698608 149.568558,353.120941 
	C161.037888,361.280792 168.268768,372.565887 170.491714,386.268066 
	C172.560135,399.017822 171.238083,411.658447 163.004608,422.956696 
z"/>
<path fill="#FFFFFF" opacity="1.000000" stroke="none" 
	d="
M446.009033,138.905365 
	C435.245636,157.683868 419.565094,168.327988 397.965485,167.853378 
	C376.878937,167.390076 358.975708,154.311188 351.080658,134.824478 
	C342.735199,114.226173 347.515320,95.351509 362.130371,79.815224 
	C374.373199,66.800682 390.217529,61.583374 408.650269,64.759422 
	C419.379730,66.608170 428.443115,71.350266 435.701752,78.604950 
	C444.319672,87.218208 450.032013,97.698341 451.216461,110.566849 
	C452.142303,120.625381 450.363037,129.681778 446.009033,138.905365 
z"/>
</svg>